<?xml version="1.0" standalone="no"?>
<!DOCTYPE svg PUBLIC "-//W3C//DTD SVG 20010904//EN"
 "http://www.w3.org/TR/2001/REC-SVG-20010904/DTD/svg10.dtd">
<svg version="1.0" xmlns="http://www.w3.org/2000/svg"
 width="564.000000pt" height="752.000000pt" viewBox="0 0 564.000000 752.000000"
 preserveAspectRatio="xMidYMid meet">

<g transform="translate(0.000000,752.000000) scale(0.100000,-0.100000)"
fill="#000000" stroke="none">
<path d="M0 7002 l0 -518 35 -17 c39 -18 92 -24 65 -7 -8 5 -12 12 -8 15 10
10 129 25 206 25 l74 0 -6 48 c-16 119 -26 257 -26 370 0 101 3 124 15 129 20
7 18 83 -2 83 -10 0 -12 32 -8 158 3 86 8 174 10 195 l5 37 -180 0 -180 0 0
-518z m210 -372 c0 -5 -4 -10 -10 -10 -5 0 -10 5 -10 10 0 6 5 10 10 10 6 0
10 -4 10 -10z"/>
<path d="M1880 7463 c0 -32 7 -222 15 -423 8 -201 15 -382 15 -402 0 -33 4
-38 28 -44 15 -3 54 -13 87 -21 39 -10 128 -16 257 -19 143 -3 206 -8 232 -19
40 -17 80 -20 71 -5 -3 6 1 10 9 10 12 0 13 6 6 30 -7 25 -5 32 10 40 10 6 28
10 40 10 12 0 19 4 15 10 -3 5 10 8 32 7 21 0 61 2 89 7 l51 8 -3 242 c-5 297
-11 461 -20 504 -5 26 -3 32 11 32 11 0 15 5 11 15 -4 10 1 15 17 16 14 1 9 4
-13 8 -26 5 -7 9 75 15 148 10 152 14 15 17 -98 2 -107 3 -60 9 31 5 -49 7
-184 6 -173 -1 -240 -4 -243 -13 -2 -6 6 -13 19 -16 20 -4 19 -4 -5 -6 -21 -1
-30 4 -34 19 -5 19 -14 20 -274 20 l-269 0 0 -57z m925 3 c21 -20 0 -26 -92
-26 -66 0 -74 2 -63 15 7 8 27 14 44 14 l31 -2 -35 -8 c-27 -6 -21 -7 25 -4
33 2 65 5 70 5 6 1 1 5 -10 10 -18 8 -18 9 -2 9 10 1 25 -5 32 -13z m-277 -29
l57 -3 -67 -2 c-64 -2 -66 -1 -60 21 5 17 7 18 10 5 2 -13 16 -18 60 -21z m77
22 c-22 -4 -60 -7 -85 -7 l-45 1 45 7 c25 4 63 7 85 7 l40 1 -40 -9z m-166
-21 c-1 -7 -5 -24 -9 -38 -7 -21 -8 -20 -7 12 1 21 5 38 10 38 4 0 7 -6 6 -12z
m1 -119 c0 -39 15 -54 22 -21 3 9 8 -19 12 -63 4 -44 10 -88 13 -99 3 -10 1
-16 -4 -13 -4 3 -5 -31 -1 -76 3 -45 7 -97 7 -115 1 -32 2 -33 41 -29 22 2 42
1 45 -2 3 -6 -26 -12 -75 -14 -13 -1 -14 -18 -10 -112 4 -78 9 -110 18 -111
27 -3 25 -7 -8 -13 -45 -9 -50 -6 -50 30 0 16 -5 29 -11 29 -8 0 -7 5 2 16 9
11 10 18 2 22 -14 9 -15 102 -1 102 5 0 3 6 -5 14 -11 12 -15 53 -18 183 -5
308 -5 321 9 316 7 -3 12 -22 12 -44z m268 -176 c-10 -2 -26 -2 -35 0 -10 3
-2 5 17 5 19 0 27 -2 18 -5z m49 1 c-3 -3 -12 -4 -19 -1 -8 3 -5 6 6 6 11 1
17 -2 13 -5z m-207 -8 c0 -2 -11 -6 -25 -8 -14 -3 -25 -1 -25 3 0 5 11 9 25 9
14 0 25 -2 25 -4z m73 -3 c-13 -2 -33 -2 -45 0 -13 2 -3 4 22 4 25 0 35 -2 23
-4z m90 -230 c-24 -2 -62 -2 -85 0 -24 2 -5 4 42 4 47 0 66 -2 43 -4z m104
-195 c-3 -7 -5 -2 -5 12 0 14 2 19 5 13 2 -7 2 -19 0 -25z m-7 -37 c0 -4 -33
-9 -72 -11 -40 -1 -101 -3 -136 -5 -35 -1 -60 1 -55 6 5 5 60 10 123 12 63 1
121 4 128 5 6 1 12 -2 12 -7z m-190 -41 c-8 -5 -22 -9 -30 -9 -10 0 -8 3 5 9
27 12 43 12 25 0z m-122 -7 c-10 -2 -26 -2 -35 0 -10 3 -2 5 17 5 19 0 27 -2
18 -5z"/>
<path d="M2441 6894 c0 -11 3 -14 6 -6 3 7 2 16 -1 19 -3 4 -6 -2 -5 -13z"/>
<path d="M3324 7408 c3 -62 9 -213 12 -335 6 -195 5 -223 -9 -223 -8 0 -17
-11 -19 -25 -4 -20 -1 -26 18 -31 22 -6 24 -12 24 -60 l0 -54 44 6 c37 6 44 4
48 -14 6 -23 71 -41 160 -45 31 -1 52 -5 46 -8 -12 -8 47 -29 76 -28 12 0 15
3 9 6 -23 9 -15 32 9 25 11 -3 19 -1 16 4 -4 5 56 10 140 12 81 2 148 5 149 6
1 1 -4 33 -12 71 -26 121 -78 438 -81 484 -1 24 -6 46 -12 50 -5 3 -9 13 -10
21 -1 28 -11 85 -28 168 l-17 82 -285 0 -284 0 6 -112z m466 -248 c0 -5 -4
-10 -10 -10 -5 0 -10 5 -10 10 0 6 5 10 10 10 6 0 10 -4 10 -10z m10 -40 c0
-5 -4 -10 -9 -10 -6 0 -13 5 -16 10 -3 6 1 10 9 10 9 0 16 -4 16 -10z m5 -30
c3 -5 -3 -10 -14 -10 -12 0 -21 5 -21 10 0 6 6 10 14 10 8 0 18 -4 21 -10z m5
-40 c0 -5 -6 -10 -14 -10 -8 0 -18 5 -21 10 -3 6 3 10 14 10 12 0 21 -4 21
-10z m5 -30 c4 -6 -5 -10 -19 -10 -14 0 -26 5 -26 10 0 6 9 10 19 10 11 0 23
-4 26 -10z m10 -40 c-3 -5 -15 -10 -25 -10 -10 0 -22 5 -25 10 -4 6 7 10 25
10 18 0 29 -4 25 -10z m9 -25 c-4 -9 -19 -15 -35 -15 -40 0 -37 18 4 23 17 2
33 5 34 5 1 1 0 -5 -3 -13z m-4 -46 c0 -12 -47 -12 -55 0 -3 5 5 11 17 13 27
5 38 1 38 -13z m10 -29 c0 -5 -13 -10 -29 -10 -17 0 -33 5 -36 10 -4 6 8 10
29 10 20 0 36 -4 36 -10z m-4 -32 c4 -5 -2 -8 -14 -8 -12 0 -25 0 -29 -1 -4 0
-9 3 -10 8 -4 11 42 11 53 1z m14 -38 c0 -5 -16 -10 -35 -10 -19 0 -35 5 -35
10 0 6 16 10 35 10 19 0 35 -4 35 -10z m-2 -34 c-4 -12 -68 -18 -68 -6 0 4 6
11 13 14 19 8 58 2 55 -8z m-154 -154 c3 -5 -1 -9 -9 -9 -8 0 -12 4 -9 9 3 4
7 8 9 8 2 0 6 -4 9 -8z"/>
<path d="M2878 7433 c12 -2 32 -2 45 0 12 2 2 4 -23 4 -25 0 -35 -2 -22 -4z"/>
<path d="M2825 7400 c-3 -5 -1 -10 4 -10 6 0 11 5 11 10 0 6 -2 10 -4 10 -3 0
-8 -4 -11 -10z"/>
<path d="M2908 7403 c-43 -5 -43 -6 -32 -144 l7 -74 86 3 c135 4 127 -3 123
95 -3 67 0 86 13 97 8 7 18 11 20 8 3 -3 8 -46 11 -96 4 -51 11 -92 16 -92 5
0 6 39 2 95 -5 68 -4 95 5 95 7 0 11 -31 11 -95 0 -57 4 -95 10 -95 6 0 10 42
10 105 l0 105 -122 -2 c-68 -1 -140 -3 -160 -5z"/>
<path d="M3970 7286 c0 -2 7 -7 16 -10 8 -3 12 -2 9 4 -6 10 -25 14 -25 6z"/>
<path d="M2882 7048 l3 -113 94 4 c52 2 101 4 110 6 14 2 15 16 13 98 -3 82
-1 98 13 103 9 4 18 4 21 2 2 -3 7 -48 11 -102 3 -53 10 -96 15 -96 4 0 6 46
3 103 -4 68 -2 95 4 82 5 -11 10 -58 10 -104 1 -48 5 -81 10 -75 4 5 6 53 3
107 l-4 97 -155 0 -154 0 3 -112z"/>
<path d="M3045 6909 c-71 -4 -136 -7 -142 -8 -10 -1 -13 -30 -13 -111 l0 -109
83 5 c45 3 87 7 94 9 7 3 13 30 16 72 l3 68 2 -67 c2 -58 5 -68 20 -68 15 0
17 8 12 73 -8 106 -7 121 11 125 14 2 17 -13 23 -98 7 -89 10 -100 27 -100 18
0 19 8 19 104 0 74 -4 105 -12 108 -7 2 -71 0 -143 -3z m132 -61 c-3 -8 -6 -5
-6 6 -1 11 2 17 5 13 3 -3 4 -12 1 -19z"/>
<path d="M2856 6645 c5 -11 -1 -15 -22 -15 -23 0 -74 -19 -53 -20 3 0 48 -9
100 -20 101 -22 229 -37 229 -27 0 3 -51 22 -112 42 -62 20 -117 41 -122 46
-15 14 -26 11 -20 -6z"/>
<path d="M2908 6653 c7 -3 16 -2 19 1 4 3 -2 6 -13 5 -11 0 -14 -3 -6 -6z"/>
<path d="M3095 6523 c-55 -1 -190 -8 -300 -14 -110 -6 -252 -13 -315 -15 -130
-6 -154 -10 -129 -25 10 -5 75 -5 165 1 388 26 474 30 723 31 231 1 263 3 246
15 -19 14 -88 15 -390 7z"/>
<path d="M4740 5999 c0 -11 5 -17 10 -14 6 3 10 13 10 21 0 8 -4 14 -10 14 -5
0 -10 -9 -10 -21z"/>
<path d="M4663 5951 c-37 -5 -48 -13 -83 -61 -33 -44 -38 -56 -25 -58 21 -5
57 27 51 44 -3 7 4 20 14 29 25 23 28 15 34 -105 3 -52 6 -95 7 -95 1 0 7 -44
13 -98 11 -95 11 -98 -12 -127 -13 -17 -20 -30 -17 -30 4 0 0 -11 -9 -25 -9
-13 -16 -31 -16 -40 0 -8 -4 -15 -10 -15 -15 0 -12 -37 4 -43 8 -3 16 -14 19
-24 2 -10 2 1 -1 24 -5 51 3 86 24 107 21 22 55 21 47 0 -3 -9 6 -4 20 10 14
14 31 26 37 26 20 0 9 -22 -29 -58 -33 -31 -40 -45 -45 -89 -5 -36 -3 -55 6
-64 8 -7 12 -30 10 -58 -2 -37 0 -42 8 -24 5 13 15 21 22 18 22 -8 39 11 44
50 6 49 10 54 37 48 30 -7 228 -106 222 -111 -2 -3 -53 1 -112 7 -73 8 -116 9
-133 2 -21 -8 -22 -10 -5 -11 19 -1 19 -1 2 -15 -18 -13 -17 -14 7 -30 14 -9
40 -21 58 -26 18 -4 66 -20 106 -33 40 -14 96 -28 125 -31 l52 -5 -45 17 c-61
22 -37 27 45 8 36 -8 79 -15 95 -15 16 0 44 -9 62 -20 18 -11 41 -20 51 -20
10 0 37 -9 61 -20 24 -10 78 -29 122 -41 43 -12 87 -24 97 -26 14 -5 17 1 17
37 0 33 -4 43 -20 47 -11 3 -20 9 -20 14 0 5 9 9 20 9 18 0 20 7 20 58 l0 57
-187 44 c-398 92 -443 103 -437 112 3 5 31 9 62 9 42 0 70 -7 104 -25 26 -14
53 -25 60 -25 7 1 0 8 -15 16 -41 22 -27 27 38 14 31 -6 59 -10 61 -7 3 2 -24
10 -58 18 -51 11 -57 14 -33 17 16 2 33 9 37 15 6 9 12 9 27 0 11 -7 21 -8 23
-3 2 4 21 2 43 -6 22 -7 60 -17 85 -20 25 -3 78 -12 118 -19 l72 -12 0 168 c0
151 -2 168 -17 173 -88 25 -134 28 -253 17 -68 -6 -125 -13 -127 -14 -1 -2 30
-11 70 -21 l74 -17 57 -78 c31 -43 66 -88 77 -100 11 -12 17 -26 14 -31 -3 -6
1 -10 9 -10 8 0 17 -4 21 -9 10 -17 -97 -10 -158 10 -63 21 -91 24 -82 9 3 -5
0 -10 -9 -10 -25 0 -46 12 -46 26 0 25 -116 71 -262 105 -52 12 -58 12 -57 3
0 -4 -4 -10 -11 -14 -15 -9 76 -52 158 -75 34 -10 62 -22 62 -26 0 -11 -3 -11
-37 2 -15 6 -47 14 -71 18 -35 7 -40 6 -31 -5 16 -19 -20 -19 -66 0 -19 8 -35
12 -35 7 0 -10 72 -41 134 -57 l51 -13 -61 3 c-34 2 -81 0 -105 -5 -44 -8
-142 5 -165 23 -8 6 -12 -5 -13 -39 -1 -41 -3 -63 -10 -106 0 -5 -6 -5 -12 -2
-6 4 -8 13 -5 21 3 8 2 14 -3 14 -4 0 -7 16 -5 35 1 23 -1 33 -8 29 -12 -7 -4
9 15 34 6 8 12 23 12 34 2 20 1 20 -12 3 -7 -11 -13 -14 -13 -8 0 14 35 53 48
53 5 0 31 19 56 41 45 41 57 71 34 85 -7 4 -8 3 -4 -4 5 -8 0 -12 -13 -12 -12
0 -21 5 -21 11 0 7 -10 9 -24 7 -23 -5 -25 -1 -28 35 l-3 39 -25 -22 c-14 -12
-20 -19 -13 -16 7 4 6 -4 -3 -24 -16 -31 -31 -42 -20 -15 3 8 2 25 -3 38 -5
12 -10 47 -12 77 l-4 55 45 6 45 6 -46 1 c-45 2 -47 3 -52 39 -5 28 -3 40 8
46 9 4 12 13 9 19 -5 7 2 9 20 6 14 -3 26 -1 26 3 0 5 5 9 10 9 6 0 10 -7 10
-17 0 -27 13 -6 20 34 l8 38 2 -45 c1 -25 4 -37 7 -27 6 22 15 22 31 -3 21
-34 59 -24 53 13 -1 5 3 6 8 3 5 -4 12 4 14 16 3 13 3 -8 0 -47 -7 -93 3 -80
16 19 5 45 16 85 25 95 9 10 16 21 16 24 0 8 -237 7 -297 -2z m140 -428 c-7
-3 -13 -14 -13 -24 0 -11 -4 -17 -10 -14 -5 3 -10 15 -10 26 0 11 4 18 9 14 5
-3 13 0 16 6 4 5 10 7 14 3 3 -4 0 -9 -6 -11z m427 -327 l135 -34 -88 -1 c-81
-1 -92 1 -157 34 -71 36 -88 50 -47 40 12 -3 83 -21 157 -39z"/>
<path d="M4782 5678 c2 -63 2 -63 5 -11 l4 51 49 4 49 3 -3 -30 c-3 -16 -7
-57 -10 -90 -5 -53 -3 -50 14 30 10 50 19 93 19 98 1 4 -28 7 -64 7 l-65 0 2
-62z"/>
<path d="M4615 5680 c-3 -5 -1 -10 4 -10 6 0 11 5 11 10 0 6 -2 10 -4 10 -3 0
-8 -4 -11 -10z"/>
<path d="M4780 5592 c0 -11 4 -23 8 -26 10 -6 9 30 -1 40 -4 4 -7 -2 -7 -14z"/>
<path d="M4657 5423 c-4 -3 -7 -15 -7 -25 0 -17 1 -17 20 -1 11 10 20 21 20
25 0 10 -24 11 -33 1z"/>
<path d="M4770 5390 c-9 -6 -10 -10 -3 -10 6 0 15 5 18 10 8 12 4 12 -15 0z"/>
<path d="M4650 5331 c0 -11 4 -22 9 -25 4 -3 6 6 3 19 -5 30 -12 33 -12 6z"/>
<path d="M5364 5299 c25 -14 35 -24 27 -28 -7 -5 5 -13 31 -21 l43 -14 -45 -7
c-38 -5 -33 -6 35 -8 55 -1 93 -8 124 -21 24 -11 48 -20 55 -20 20 0 -18 19
-84 41 -36 12 -97 39 -136 60 -39 22 -75 39 -80 39 -5 -1 9 -10 30 -21z"/>
<path d="M5348 5273 c7 -3 16 -2 19 1 4 3 -2 6 -13 5 -11 0 -14 -3 -6 -6z"/>
<path d="M3432 5250 c0 -14 2 -19 5 -12 2 6 2 18 0 25 -3 6 -5 1 -5 -13z"/>
<path d="M2832 5222 l-374 -15 6 -111 c4 -61 13 -327 21 -591 17 -572 24 -730
31 -750 5 -11 -2 -15 -24 -15 -17 0 -33 -4 -36 -9 -3 -4 -40 -11 -83 -15 -125
-11 -177 -30 -141 -52 6 -4 8 -3 4 4 -12 20 11 22 29 2 18 -20 18 -21 -15 -55
-18 -19 -38 -31 -43 -28 -6 3 -7 1 -4 -4 4 -6 -2 -18 -13 -28 -11 -10 -20 -23
-20 -29 0 -6 28 18 63 52 34 34 65 62 68 62 5 0 -173 -179 -189 -190 -4 -3 9
12 27 33 69 74 22 35 -69 -58 -51 -52 -98 -92 -103 -88 -6 4 -7 1 -2 -6 10
-18 -50 -79 -101 -102 -22 -10 -51 -16 -65 -13 -43 10 -89 35 -88 47 0 8 2 8
6 -1 4 -10 8 -9 19 5 7 10 14 21 14 24 0 12 -42 2 -51 -12 -5 -8 -9 -12 -10
-9 -6 34 -9 43 -15 48 -4 4 -4 -1 -1 -10 5 -16 -6 -17 -139 -13 -153 4 -151 5
-145 -44 2 -7 0 -20 -4 -29 -5 -13 -8 -12 -19 8 -8 17 -9 29 -3 38 5 7 8 14 5
17 -6 7 -343 -13 -447 -27 -51 -6 -100 -18 -107 -26 -9 -8 -13 -27 -11 -47 l4
-33 -96 -7 c-156 -10 -296 -24 -315 -31 -10 -4 -28 -29 -41 -55 -12 -27 -24
-46 -27 -44 -2 3 -5 -3 -5 -13 1 -57 -4 -81 -18 -84 -11 -2 -7 -17 18 -70 32
-67 32 -68 80 -74 58 -8 53 -17 -11 -20 -60 -2 -60 -2 -42 -14 11 -7 2 -10
-31 -10 -39 0 -49 4 -63 25 -9 14 -21 23 -27 19 -6 -4 -4 -13 7 -25 18 -19 16
-20 -64 -16 -44 2 -79 0 -76 -4 2 -4 -14 -8 -36 -7 -35 0 -39 2 -28 16 12 14
11 14 -10 1 -22 -14 -22 -16 -22 -243 l0 -228 55 4 c52 4 75 -6 38 -18 -31 -9
-68 -32 -67 -41 1 -4 -6 -13 -15 -20 -9 -6 -13 -14 -10 -17 3 -3 37 19 76 49
65 49 76 54 121 53 l51 0 -42 -40 c-23 -22 -51 -44 -62 -48 -19 -7 -19 -7 3
-19 13 -7 21 -8 20 -2 -2 6 21 33 51 61 39 35 63 50 83 50 15 0 30 0 33 0 3 0
5 -3 4 -6 0 -4 5 -11 13 -16 10 -7 9 -11 -7 -23 -11 -8 -25 -19 -32 -25 -7 -5
-16 -10 -22 -10 -5 0 -11 -7 -15 -15 -11 -29 15 -14 76 44 53 50 66 58 85 50
12 -4 31 -6 42 -4 12 2 21 0 21 -4 0 -15 -37 -56 -52 -57 -53 -4 -53 -4 -39
-13 9 -6 -2 -8 -33 -5 -31 3 -45 1 -41 -6 3 -6 11 -8 16 -5 5 4 9 1 9 -5 0 -7
7 -9 16 -6 8 3 12 2 9 -4 -3 -6 -1 -10 5 -10 8 0 8 -6 0 -20 -6 -12 -21 -20
-35 -20 -14 0 -25 -4 -25 -10 0 -14 22 -12 46 5 12 8 25 11 29 7 5 -4 5 -2 1
5 -3 6 2 16 11 22 10 6 14 11 9 11 -15 0 26 40 41 40 7 0 16 7 19 15 8 20 21
19 27 -2 4 -17 5 -17 6 0 1 24 17 21 25 -5 7 -22 8 -22 15 -4 5 12 10 15 14 9
9 -14 -19 -37 -37 -30 -10 4 -13 1 -9 -10 9 -22 -18 -35 -32 -16 -13 18 -51
11 -40 -7 3 -5 -1 -10 -9 -10 -10 0 -13 -6 -9 -16 5 -13 7 -13 14 -2 7 10 9
10 9 1 0 -7 5 -13 11 -13 6 0 9 9 6 19 -3 14 -1 18 9 14 8 -3 14 -9 14 -14 0
-14 36 11 97 66 74 67 76 72 53 138 -27 78 -26 99 10 125 l30 23 0 -44 c0 -67
27 -132 71 -172 21 -19 47 -35 57 -36 9 0 53 -2 97 -5 45 -2 95 1 115 7 44 15
92 48 85 59 -3 5 3 11 14 15 18 5 33 35 59 120 7 21 6 37 -4 55 -7 14 -23 51
-35 83 -43 109 19 83 67 -29 22 -50 23 -157 1 -206 -8 -20 -34 -57 -56 -81
-107 -116 -289 -122 -404 -13 -38 36 -76 105 -77 139 0 9 -4 17 -10 17 -13 0
-13 3 10 -64 11 -32 31 -71 45 -88 29 -34 27 -46 -3 -27 -11 7 -18 18 -15 25
3 9 -3 12 -23 8 -15 -3 -31 -7 -34 -9 -5 -3 -6 -32 -1 -54 1 -2 7 1 14 6 6 6
23 13 36 16 18 4 21 3 13 -5 -13 -13 -29 -17 -119 -30 -7 -1 -10 -5 -8 -9 7
-10 -5 -39 -17 -39 -5 0 -6 6 -2 13 6 9 4 9 -7 0 -10 -10 -10 -16 -1 -25 9 -9
19 -5 43 20 35 36 63 44 33 10 -10 -12 -13 -18 -6 -14 6 4 12 3 12 -3 0 -5 -6
-12 -12 -14 -7 -3 4 -6 24 -6 39 -1 57 14 40 31 -8 8 -16 7 -27 -2 -8 -7 -15
-8 -15 -4 0 5 9 15 20 22 11 7 20 8 20 3 0 -5 12 -8 28 -7 15 2 39 -3 54 -10
16 -8 28 -10 28 -5 0 5 -6 11 -12 14 -7 2 -10 7 -7 11 4 4 13 0 22 -8 8 -8 17
-12 21 -9 3 4 6 1 6 -4 0 -6 -6 -13 -12 -16 -10 -3 -10 -7 -1 -17 8 -9 15 -8
31 8 17 17 23 18 44 8 13 -7 36 -12 51 -12 17 1 27 -3 27 -12 0 -12 3 -12 15
-2 23 19 31 3 11 -19 -17 -18 -16 -20 4 -26 12 -4 27 -2 33 4 8 8 8 11 -2 11
-7 0 -9 5 -6 11 4 6 14 8 22 5 8 -3 12 -2 8 3 -3 5 9 12 26 16 41 9 55 -11 26
-37 -17 -14 -18 -17 -4 -12 10 4 17 3 16 -2 -3 -20 2 -31 16 -31 8 0 12 4 9 9
-3 4 7 13 22 18 15 6 40 20 55 31 16 11 29 16 29 12 0 -18 -53 -73 -70 -73
-10 0 -30 -10 -45 -21 -22 -18 -29 -20 -37 -8 -8 11 -9 10 -4 -3 6 -19 -20
-24 -89 -19 -37 3 -44 9 -25 21 21 13 33 12 24 -2 -4 -7 -3 -8 5 -4 6 4 9 11
6 15 -2 5 9 11 25 15 27 5 44 26 21 26 -11 0 -66 -25 -119 -55 -23 -13 -56
-23 -72 -23 -36 1 -50 -10 -30 -22 18 -12 -28 -12 -75 -1 -29 7 -27 9 55 50
49 24 94 40 107 38 12 -2 24 2 27 9 3 8 -2 11 -14 9 -21 -4 -23 16 -6 44 7 11
5 13 -7 8 -10 -3 -17 -2 -17 3 0 16 -14 12 -38 -10 -12 -11 -30 -20 -41 -20
-11 0 -22 -4 -25 -8 -8 -13 60 -8 76 5 7 7 19 8 26 4 10 -6 10 -10 -1 -20 -25
-20 -111 -61 -130 -61 -10 0 -16 -4 -13 -9 10 -15 -27 -18 -69 -5 -22 6 -34
12 -27 13 14 1 17 31 3 31 -5 0 -16 -6 -23 -14 -8 -7 -24 -17 -37 -21 -18 -5
-22 -4 -16 6 5 8 4 11 -1 6 -5 -5 -9 -13 -9 -19 0 -11 -11 -14 -75 -21 -22 -3
-36 -10 -38 -21 -2 -9 -11 -16 -20 -16 -17 1 -52 22 -52 33 0 8 61 27 70 22 4
-3 13 2 20 10 11 13 14 13 26 -2 12 -17 13 -17 8 2 -4 16 0 21 15 22 12 1 34
11 50 22 38 27 49 27 25 0 -19 -22 -19 -22 4 -10 15 8 21 18 18 28 -5 12 -1
14 14 10 17 -4 19 -3 10 8 -7 8 -9 19 -5 24 3 7 0 8 -9 5 -9 -3 -14 -10 -11
-15 3 -4 -4 -13 -15 -19 -14 -8 -20 -8 -20 0 0 6 -10 2 -22 -10 -12 -11 -35
-20 -52 -20 -16 0 -26 -3 -23 -7 4 -3 -12 -15 -36 -26 -59 -27 -96 -37 -102
-27 -3 4 -23 3 -44 -2 -30 -8 -38 -14 -34 -26 5 -13 1 -14 -28 -7 -41 10 -80
10 -136 0 -29 -5 -43 -4 -43 3 0 6 -7 9 -16 5 -13 -5 -13 -8 -2 -15 10 -8 10
-9 -1 -6 -25 7 -24 28 3 38 35 13 33 21 -7 18 -44 -3 -80 -38 -39 -38 15 -1
15 -2 -2 -11 -15 -9 -16 -13 -5 -20 10 -6 11 -9 2 -9 -10 0 -13 -196 -13 -945
l0 -945 1345 0 c861 0 1346 4 1350 10 3 6 15 10 26 10 11 0 17 -5 14 -10 -4
-7 303 -10 954 -10 739 1 961 4 965 13 3 9 5 9 5 0 1 -9 117 -12 491 -13 l490
0 0 230 0 230 -22 1 -23 0 22 11 23 11 0 673 c0 575 -3 674 -15 674 -7 0 -17
5 -21 11 -4 8 0 9 15 4 18 -5 21 -2 21 24 0 29 -2 31 -40 31 -22 0 -40 5 -40
11 0 7 14 8 40 4 l40 -7 -2 304 -3 303 -37 0 c-35 -1 -37 0 -21 17 9 10 13 21
10 25 -4 3 -40 7 -80 9 -39 1 -93 5 -119 9 -34 5 -52 4 -63 -5 -9 -7 -18 -11
-20 -8 -14 14 32 30 102 35 78 6 111 22 96 45 -12 20 -10 66 3 61 14 -5 44 35
44 58 0 10 -5 19 -11 21 -9 3 -9 10 0 27 13 23 6 82 -21 194 -17 72 -4 70
-758 102 -200 9 -366 18 -369 21 -2 2 3 4 12 4 9 0 17 7 17 16 0 22 -37 67
-45 54 -11 -18 -73 -12 -84 9 -6 10 -7 22 -3 26 4 5 2 5 -4 2 -12 -7 -266 262
-291 306 -7 12 -12 39 -13 60 0 21 -4 36 -9 33 -5 -4 -22 -1 -38 5 -15 6 -53
15 -83 20 -174 31 -212 35 -378 45 -74 5 -109 10 -100 16 8 6 -20 7 -74 3 -59
-4 -88 -3 -88 4 0 6 8 12 18 12 9 1 -10 5 -43 9 -80 11 -214 15 -222 6 -11
-10 -35 -7 -28 4 8 13 -351 13 -375 0 -23 -12 -49 5 -32 22 6 6 12 8 12 3 0
-4 9 0 20 10 11 10 23 15 27 12 3 -4 0 -7 -8 -7 -11 0 -11 -2 1 -10 17 -11
279 -14 329 -4 l31 7 0 98 c0 86 9 125 23 102 3 -5 33 -6 66 -5 35 2 59 8 55
13 -3 5 -11 9 -17 8 -7 -1 -23 -1 -37 0 l-25 2 25 13 24 14 -24 5 c-14 2 1 5
33 6 39 1 56 5 51 12 -3 6 -20 9 -36 7 -16 -3 -31 -1 -34 4 -3 4 10 9 28 9 33
1 33 1 -7 9 -22 5 -59 7 -82 5 -28 -2 -43 0 -44 8 0 7 -6 91 -12 187 -7 96
-12 248 -12 337 0 136 -2 163 -15 166 -8 3 8 4 35 4 28 0 70 1 95 2 75 4 17
19 -80 22 l-85 2 60 7 60 6 -45 4 c-36 4 -24 7 60 15 l105 10 -90 4 -90 4 100
12 100 13 -105 -1 c-121 0 -117 -4 -119 115 -1 84 11 118 41 117 13 0 17 -3
11 -6 -9 -3 -13 -35 -13 -107 l0 -103 48 3 c26 2 95 6 155 10 l107 6 0 83 c0
46 3 90 6 99 5 14 -9 16 -112 18 -66 1 -93 3 -61 5 46 3 58 7 53 19 -4 11 6
14 48 14 58 0 72 -9 86 -57 8 -28 8 -28 10 -3 1 23 2 23 9 5 6 -15 10 -7 15
35 4 30 10 63 12 73 6 20 48 20 -484 -1z m371 -19 c-7 -2 -19 -2 -25 0 -7 3
-2 5 12 5 14 0 19 -2 13 -5z m-656 -265 c-2 -13 -4 -5 -4 17 -1 22 1 32 4 23
2 -10 2 -28 0 -40z m346 -65 c-7 -2 -19 -2 -25 0 -7 3 -2 5 12 5 14 0 19 -2
13 -5z m-220 -10 c-7 -2 -19 -2 -25 0 -7 3 -2 5 12 5 14 0 19 -2 13 -5z m170
-20 c-7 -2 -21 -2 -30 0 -10 3 -4 5 12 5 17 0 24 -2 18 -5z m-286 -235 c-2
-29 -3 -6 -3 52 0 58 1 81 3 53 2 -29 2 -77 0 -105z m-13 -274 c3 -186 3 -198
-4 -84 -9 167 -12 315 -5 308 3 -3 7 -104 9 -224z m26 89 c0 -53 -2 -94 -4
-92 -8 10 -14 199 -5 194 5 -4 9 -49 9 -102z m-53 -85 c-2 -13 -4 -3 -4 22 0
25 2 35 4 23 2 -13 2 -33 0 -45z m206 -15 c-7 -2 -21 -2 -30 0 -10 3 -4 5 12
5 17 0 24 -2 18 -5z m-150 -123 c2 -52 1 -86 -4 -75 -4 11 -8 58 -8 105 1 108
6 93 12 -30z m-56 28 c-2 -13 -4 -5 -4 17 -1 22 1 32 4 23 2 -10 2 -28 0 -40z
m10 -280 c-3 -8 -6 -5 -6 6 -1 11 2 17 5 13 3 -3 4 -12 1 -19z m56 -70 c2 -38
0 -58 -7 -58 -7 0 -10 23 -7 67 4 77 8 74 14 -9z m-26 -5 c-2 -16 -4 -5 -4 22
0 28 2 40 4 28 2 -13 2 -35 0 -50z m-30 25 c-3 -8 -6 -5 -6 6 -1 11 2 17 5 13
3 -3 4 -12 1 -19z m221 -285 c-64 -2 -172 -2 -240 0 -68 1 -15 3 117 3 132 0
187 -2 123 -3z m287 -73 c124 0 255 14 255 27 0 15 26 16 119 7 l61 -7 0 -47
c0 -26 -3 -68 -6 -94 l-7 -47 -238 3 c-130 2 -240 5 -243 8 -2 3 -2 24 1 46
l5 40 91 3 c51 1 94 4 96 7 2 2 -43 5 -100 6 -95 1 -99 2 -37 7 62 6 104 20
62 22 -10 0 -35 2 -54 3 -19 1 -43 -1 -52 -6 -14 -7 -17 -1 -21 34 -2 24 -4
-3 -5 -58 -2 -115 5 -164 23 -164 14 0 65 -56 65 -71 0 -5 -5 -9 -11 -9 -5 0
-7 5 -3 12 5 7 2 9 -9 5 -9 -3 -17 -1 -19 5 -2 6 -11 4 -21 -6 -9 -10 -21 -14
-27 -11 -6 4 -10 -6 -10 -24 0 -17 -3 -31 -7 -31 -9 0 -9 123 1 275 9 137 14
151 34 103 14 -36 17 -38 57 -38z m-132 33 c-5 -16 -7 -59 -6 -97 1 -48 -2
-65 -8 -55 -7 10 -8 4 -5 -21 15 -106 17 -132 8 -143 -6 -7 -12 -23 -14 -37
l-3 -25 -34 33 c-28 27 -32 38 -27 63 3 16 15 39 26 51 41 44 31 48 -137 49
l-158 2 157 11 c87 7 160 15 164 19 4 4 -7 7 -24 7 -20 0 -32 5 -32 13 0 9 11
13 29 12 29 -2 29 -1 36 64 8 71 11 81 26 81 5 0 6 -11 2 -27z m-481 -65 c-4
-92 -13 -108 -67 -108 -18 0 -34 2 -37 5 -2 3 -1 32 3 66 5 47 13 67 35 90 15
16 37 29 48 29 20 0 21 -5 18 -82z m90 45 c1 -21 2 -66 4 -100 l2 -63 -39 0
-39 0 0 84 c0 104 4 116 41 116 27 0 29 -3 31 -37z m77 10 c-1 -22 -2 -23 -6
-8 -3 11 -10 23 -17 27 -7 5 -5 8 7 8 12 0 17 -7 16 -27z m1018 -7 c2 -1 5
-213 4 -288 -1 -32 -5 -58 -11 -58 -5 0 -10 9 -10 20 0 14 -7 20 -22 21 l-23
0 23 11 c18 9 22 19 22 60 l0 48 -50 0 -50 0 0 39 c0 21 3 66 6 100 l7 61 51
-6 c28 -4 52 -7 53 -8z m-1297 -86 c-5 -36 -10 -92 -11 -125 -1 -73 -11 -115
-23 -97 -4 7 -4 41 0 75 5 34 8 66 9 71 0 5 -11 11 -24 13 -38 5 -38 10 2 51
20 21 37 45 37 53 0 15 10 32 16 26 2 -1 -1 -32 -6 -67z m1400 -20 c27 -37 50
-70 50 -74 0 -3 -29 -6 -65 -6 l-65 0 0 86 c0 101 1 101 80 -6z m125 40 c27
-27 47 -50 44 -50 -3 0 -27 23 -54 50 -27 28 -47 50 -44 50 3 0 27 -22 54 -50z
m-35 -5 c19 -19 32 -35 29 -35 -3 0 -20 16 -39 35 -19 19 -32 35 -29 35 3 0
20 -16 39 -35z m-1618 -37 c-7 -7 -12 -8 -12 -2 0 14 12 26 19 19 2 -3 -1 -11
-7 -17z m-122 -63 c-24 -25 -46 -45 -49 -45 -3 0 15 20 39 45 24 25 46 45 49
45 3 0 -15 -20 -39 -45z m1899 -42 c35 -43 46 -60 26 -38 -46 50 -98 115 -92
115 2 0 32 -35 66 -77z m-1149 24 c0 -1 -23 -25 -52 -52 -49 -47 -50 -40 0 15
12 14 22 28 22 32 0 5 7 8 15 8 8 0 15 -1 15 -3z m964 -76 c-17 -18 -23 -33
-19 -48 3 -13 2 -23 -2 -23 -5 -1 -25 -3 -45 -6 -20 -3 -47 0 -60 7 -22 12
-22 12 -3 20 17 6 17 8 3 8 -10 1 -18 6 -18 11 0 15 27 12 44 -6 15 -14 19
-13 44 14 15 16 34 37 42 47 14 17 13 18 -2 12 -10 -3 -18 -2 -18 2 0 17 25
19 42 4 16 -14 15 -17 -8 -42z m-1774 26 c0 -2 -19 -21 -42 -42 l-43 -40 40
43 c36 39 45 47 45 39z m1829 -31 c13 -15 -7 -28 -47 -31 l-22 -1 22 22 c27
27 32 28 47 10z m-2169 -31 c-7 -8 -16 -13 -20 -10 -4 3 -14 -3 -21 -12 -13
-15 -11 -16 19 -10 19 4 31 3 27 -2 -3 -5 3 -12 12 -14 15 -4 14 -6 -7 -13
-23 -7 -22 -8 14 -18 36 -10 31 -11 -57 -14 -58 -1 -98 2 -102 8 -3 5 -26 10
-51 10 -28 0 -43 4 -39 10 3 6 27 10 53 10 75 0 92 8 92 41 0 28 2 29 46 29
40 0 45 -2 34 -15z m-366 -26 c4 -19 10 -28 17 -23 7 4 10 2 7 -6 -2 -7 -15
-15 -28 -17 -14 -2 -29 -8 -34 -13 -6 -6 -15 -10 -20 -10 -6 0 0 7 12 16 17
12 20 19 12 34 -16 29 -12 50 9 50 13 0 20 -10 25 -31z m2751 11 c10 -11 16
-20 13 -20 -3 0 -13 9 -23 20 -10 11 -16 20 -13 20 3 0 13 -9 23 -20z m-172
-3 c22 5 22 5 2 -10 -11 -9 -22 -11 -23 -6 -2 5 -8 7 -13 4 -5 -4 -6 2 -2 11
4 10 8 13 10 7 2 -6 14 -9 26 -6z m141 -12 c17 -25 16 -25 -12 -23 -19 1 -28
7 -28 19 0 15 3 16 15 6 12 -10 14 -9 8 6 -9 24 -2 21 17 -8z m-74 5 c0 -5 -4
-10 -10 -10 -5 0 -10 5 -10 10 0 6 5 10 10 10 6 0 10 -4 10 -10z m-737 -27
c-7 -2 -21 -2 -30 0 -10 3 -4 5 12 5 17 0 24 -2 18 -5z m1182 -33 c3 -5 1 -10
-4 -10 -6 0 -11 5 -11 10 0 6 2 10 4 10 3 0 8 -4 11 -10z m-3058 -6 c-3 -3
-12 -4 -19 -1 -8 3 -5 6 6 6 11 1 17 -2 13 -5z m2490 -110 c-3 -3 -12 -4 -19
-1 -8 3 -5 6 6 6 11 1 17 -2 13 -5z m1647 -272 c-6 -4 -13 -15 -17 -24 -6 -17
-27 -25 -27 -11 0 11 33 43 44 43 8 0 8 -2 0 -8z m-4825 -48 c-13 -15 -34 -38
-47 -51 l-24 -24 7 23 c10 30 24 48 40 48 7 0 18 7 25 15 7 8 15 15 18 15 3 0
-5 -12 -19 -26z m-269 -37 c-30 -8 -32 -10 -16 -19 9 -5 20 -7 23 -4 4 3 12 1
20 -6 8 -6 39 -15 70 -19 61 -8 107 -36 59 -36 -14 0 -26 3 -26 8 0 5 -49 9
-110 9 -116 0 -129 -6 -87 -41 12 -10 16 -18 10 -19 -7 0 -13 6 -13 13 0 8 -3
9 -8 1 -8 -13 -44 -15 -36 -2 3 4 -4 8 -15 8 -27 0 -26 10 3 40 42 44 131 93
151 82 5 -3 -6 -10 -25 -15z m940 -42 c13 -14 21 -25 18 -25 -2 0 -15 11 -28
25 -13 14 -21 25 -18 25 2 0 15 -11 28 -25z m380 9 c0 -8 -4 -12 -10 -9 -5 3
-10 10 -10 16 0 5 5 9 10 9 6 0 10 -7 10 -16z m-310 -69 c19 -19 32 -35 29
-35 -3 0 -20 16 -39 35 -19 19 -32 35 -29 35 3 0 20 -16 39 -35z m-983 -10 c0
-8 -4 -15 -9 -15 -10 0 -11 14 -1 23 9 10 10 9 10 -8z m1058 -75 c10 -11 16
-20 13 -20 -3 0 -13 9 -23 20 -10 11 -16 20 -13 20 3 0 13 -9 23 -20z m-396
-19 c8 -14 7 -20 -3 -24 -8 -3 -17 1 -20 9 -4 10 -2 12 6 8 8 -5 9 -2 5 9 -9
23 0 21 12 -2z m-189 -40 c0 -6 -4 -13 -10 -16 -5 -3 -10 1 -10 9 0 9 5 16 10
16 6 0 10 -4 10 -9z m43 -21 c3 -11 1 -18 -4 -14 -5 3 -9 12 -9 20 0 20 7 17
13 -6z m31 5 c-4 -8 -8 -15 -10 -15 -2 0 -4 7 -4 15 0 8 4 15 10 15 5 0 7 -7
4 -15z m2733 -7 c-3 -8 -6 -5 -6 6 -1 11 2 17 5 13 3 -3 4 -12 1 -19z m707 6
c3 -9 6 -39 6 -67 -1 -97 -61 -189 -155 -233 -92 -44 -251 -26 -317 36 -12 11
-25 20 -30 20 -4 0 -8 9 -8 19 0 23 -16 36 -25 21 -3 -5 -12 -10 -18 -10 -7 0
-6 4 3 10 13 8 12 10 -3 10 -10 0 -15 5 -12 10 5 8 11 7 21 -1 18 -15 18 -10
-2 36 -8 20 -13 40 -10 43 7 7 6 8 33 -48 12 -27 36 -56 59 -72 34 -23 52 -27
134 -31 52 -2 109 0 126 5 50 13 120 86 134 138 20 73 42 130 50 130 4 0 11
-7 14 -16z m-3517 -36 c-3 -8 -6 -5 -6 6 -1 11 2 17 5 13 3 -3 4 -12 1 -19z
m156 -5 c-5 -12 -3 -14 8 -8 12 8 12 6 0 -8 -17 -22 -19 -21 -16 6 3 25 3 27
10 27 2 0 1 -7 -2 -17z m-215 -35 c12 -21 19 -38 17 -38 -7 0 -45 63 -45 74 0
12 1 10 28 -36z m1855 18 c4 -10 1 -13 -8 -9 -8 3 -12 9 -9 14 7 12 11 11 17
-5z m-783 0 c0 -3 -4 -8 -10 -11 -5 -3 -10 -1 -10 4 0 6 5 11 10 11 6 0 10 -2
10 -4z m134 -5 c4 -5 -3 -7 -14 -4 -23 6 -26 13 -6 13 8 0 17 -4 20 -9z m201
-1 c4 -6 -5 -10 -19 -10 -14 0 -26 5 -26 10 0 6 9 10 19 10 11 0 23 -4 26 -10z
m828 3 c-7 -2 -21 -2 -30 0 -10 3 -4 5 12 5 17 0 24 -2 18 -5z m91 -14 c-3 -5
-14 -5 -25 1 -26 14 -24 18 6 12 14 -2 22 -8 19 -13z m-1684 -44 c8 -9 21 -13
35 -9 20 5 23 3 18 -16 -4 -14 -8 -18 -13 -10 -5 8 -9 7 -13 -3 -6 -16 10 -27
31 -20 6 3 12 11 12 19 0 8 5 14 10 14 6 0 10 -7 10 -15 0 -8 4 -15 10 -15 5
0 7 -7 4 -15 -4 -8 -10 -12 -15 -9 -5 3 -8 0 -7 -7 4 -19 -28 -23 -61 -8 -27
12 -28 15 -15 33 15 22 19 40 7 33 -5 -3 -16 6 -26 19 -19 26 -8 34 13 9z m58
8 c-10 -2 -26 -2 -35 0 -10 3 -2 5 17 5 19 0 27 -2 18 -5z m80 -5 c-7 -19 -35
-21 -41 -3 -5 11 0 15 19 15 16 0 24 -5 22 -12z m87 -6 c-3 -3 -11 0 -18 7 -9
10 -8 11 6 5 10 -3 15 -9 12 -12z m-271 -7 c-4 -8 -8 -15 -10 -15 -2 0 -4 7
-4 15 0 8 4 15 10 15 5 0 7 -7 4 -15z m339 8 c-7 -2 -21 -2 -30 0 -10 3 -4 5
12 5 17 0 24 -2 18 -5z m2076 -42 c1 -11 -4 -9 -15 5 -30 38 -4 -27 33 -81
l34 -50 -32 35 c-45 51 -63 95 -47 120 12 18 13 19 20 2 3 -9 7 -23 7 -31z
m125 33 c3 -8 2 -12 -4 -9 -6 3 -10 10 -10 16 0 14 7 11 14 -7z m-2850 -5
c-12 -20 -88 -49 -128 -49 -53 0 -41 9 19 15 28 2 60 13 75 24 28 22 45 27 34
10z m230 -16 c-6 -22 -4 -25 10 -20 9 4 16 2 16 -3 0 -6 -5 -10 -11 -10 -5 0
-7 -4 -4 -10 3 -5 0 -10 -8 -10 -11 0 -14 11 -14 40 0 22 5 40 9 40 5 0 5 -12
2 -27z m-440 0 c4 -11 1 -11 -14 -3 -24 13 -25 17 -5 17 8 0 16 -6 19 -14z
m-324 -3 c-20 -13 -33 -13 -25 0 3 6 14 10 23 10 15 0 15 -2 2 -10z m75 0 c-3
-5 -12 -10 -20 -10 -8 0 -17 5 -20 10 -4 6 5 10 20 10 15 0 24 -4 20 -10z
m4975 0 l25 -8 -25 0 c-14 0 -36 4 -50 8 l-25 8 25 0 c14 0 36 -4 50 -8z
m-4031 -26 c-10 -12 -9 -13 5 -8 10 4 16 1 16 -8 0 -7 -9 -14 -20 -15 -22 -2
-23 1 -14 34 4 13 10 20 16 17 5 -3 4 -12 -3 -20z m88 20 c-3 -3 -12 -4 -19
-1 -8 3 -5 6 6 6 11 1 17 -2 13 -5z m-1092 -14 c-3 -5 -12 -10 -18 -10 -7 0
-6 4 3 10 19 12 23 12 15 0z m3649 -1 c19 16 21 5 3 -13 -14 -15 -52 -36 -64
-36 -4 0 2 7 14 15 14 10 20 22 17 33 -5 14 -4 14 4 3 9 -12 13 -12 26 -2z
m-2824 -36 c0 -7 -4 -13 -10 -13 -5 0 -7 7 -4 15 4 8 1 15 -6 15 -6 0 -8 5 -4
11 7 12 24 -7 24 -28z m21 14 c-10 -9 -11 -8 -5 6 3 10 9 15 12 12 3 -3 0 -11
-7 -18z m-891 9 c0 -3 -4 -8 -10 -11 -5 -3 -10 -1 -10 4 0 6 5 11 10 11 6 0
10 -2 10 -4z m-470 -21 c-7 -8 -17 -15 -23 -15 -6 0 -2 7 9 15 25 19 30 19 14
0z m1213 -5 c-10 -11 -21 -20 -26 -20 -4 0 -3 9 3 20 6 11 17 20 25 20 12 0
12 -4 -2 -20z m2758 4 c17 -8 36 -13 43 -11 7 3 28 2 47 -3 32 -8 31 -8 -16
-9 -31 0 -63 7 -85 19 -42 23 -32 27 11 4z m-2726 -14 c-3 -5 -11 -10 -16 -10
-6 0 -7 5 -4 10 3 6 11 10 16 10 6 0 7 -4 4 -10z m-540 -39 c3 -5 1 -12 -5
-16 -5 -3 -10 -1 -10 5 0 8 -9 10 -26 6 -17 -5 -23 -3 -19 4 8 13 52 13 60 1z
m1665 -34 c0 -6 -3 -7 -7 -4 -3 4 -12 2 -19 -4 -8 -6 -21 -9 -29 -5 -26 10
-16 21 20 22 19 0 35 -4 35 -9z m87 -1 c-15 -7 -25 -15 -22 -19 3 -4 -1 -2 -7
3 -16 13 6 30 37 29 16 0 15 -3 -8 -13z m133 6 c0 -5 14 -7 30 -4 25 3 29 1
24 -12 -3 -9 -10 -14 -14 -11 -5 3 -7 -3 -5 -12 2 -10 4 -26 4 -35 1 -12 6
-15 17 -11 10 4 12 9 5 16 -16 16 0 37 30 37 30 0 39 -14 15 -23 -18 -7 -15
-59 4 -65 8 -3 10 0 5 8 -5 8 -2 17 7 24 8 6 16 14 16 19 3 13 17 9 27 -10 6
-10 15 -21 22 -26 7 -4 10 -13 7 -21 -3 -7 3 -19 13 -27 16 -12 17 -12 6 2
-14 17 -8 29 14 29 18 0 17 -46 -2 -54 -8 -3 -22 3 -32 12 -16 16 -16 16 -11
-5 5 -19 2 -23 -19 -23 -19 0 -23 4 -18 19 3 11 1 22 -5 26 -5 3 -10 0 -10 -7
0 -8 -7 -23 -16 -34 -8 -10 -13 -13 -9 -6 3 6 2 12 -4 12 -6 0 -8 7 -5 15 4 9
0 15 -9 15 -10 0 -14 -8 -13 -24 3 -21 0 -23 -23 -16 -14 4 -35 4 -46 -1 -28
-11 -37 -11 -31 0 4 5 -3 7 -15 4 -13 -4 -17 -8 -9 -13 8 -5 7 -9 -5 -14 -31
-11 -36 -6 -15 17 32 33 42 55 29 63 -6 3 -21 -6 -34 -21 -22 -28 -61 -40 -71
-23 -3 5 -15 1 -27 -9 -11 -10 -17 -12 -13 -5 9 15 1 15 -25 2 -22 -12 -24 -7
-8 23 12 22 12 22 -9 3 -29 -25 -112 -15 -131 17 -10 15 -11 22 -2 25 15 5 14
19 -3 25 -10 4 -13 1 -9 -9 3 -8 -1 -14 -10 -14 -8 0 -17 -6 -20 -14 -4 -10 0
-12 16 -8 21 5 21 5 -2 -20 -14 -15 -31 -23 -40 -20 -9 3 -12 1 -8 -5 10 -15
-52 -28 -65 -15 -8 8 -4 9 11 5 11 -3 21 -1 21 4 0 5 -10 9 -22 7 -13 -1 -27
-3 -31 -3 -5 -1 -5 -5 -2 -11 3 -5 -1 -10 -9 -10 -9 0 -16 6 -16 14 0 8 -7 17
-16 20 -23 9 -24 8 -18 -11 5 -15 4 -16 -5 -3 -9 13 -14 13 -32 2 -11 -8 -19
-9 -16 -5 3 5 -8 9 -24 9 -16 -1 -34 -8 -39 -16 -5 -8 -12 -11 -16 -8 -7 8 20
38 34 38 5 0 17 10 26 23 15 21 16 21 30 4 9 -12 16 -14 21 -8 3 6 1 11 -5 11
-6 0 -8 5 -5 10 9 15 -5 51 -17 44 -6 -4 -5 -9 3 -15 10 -6 7 -10 -11 -17 -31
-12 -37 -7 -20 13 11 13 10 18 -6 29 -10 8 -16 18 -11 22 4 4 7 2 7 -4 0 -22
25 -12 37 14 12 25 12 26 -6 10 -15 -14 -20 -14 -24 -4 -4 10 -8 10 -16 -1
-11 -16 -10 -69 2 -87 10 -17 -21 -38 -52 -36 -23 2 -27 -2 -27 -20 1 -16 -4
-22 -14 -20 -36 9 -87 8 -105 -1 -17 -8 -16 -6 4 17 14 14 30 26 37 26 6 0 14
6 17 14 4 10 -2 13 -19 12 -13 0 -24 -7 -24 -13 0 -7 -10 -14 -22 -15 -13 0
-29 -2 -37 -2 -8 -1 -16 -8 -18 -16 -3 -10 -2 -11 4 -4 6 9 11 8 20 -1 9 -10
6 -12 -13 -12 -13 0 -24 3 -24 8 0 5 -5 9 -11 9 -5 0 -8 -4 -5 -8 2 -4 -10 -7
-29 -7 -30 0 -32 2 -22 20 7 13 12 16 15 7 2 -6 8 -12 13 -12 6 0 7 5 3 12 -4
6 -3 9 2 6 5 -3 18 -2 29 3 18 7 18 8 1 8 -12 1 -16 6 -12 16 4 11 -2 15 -24
15 -16 0 -32 -5 -36 -12 -4 -6 -3 -8 4 -4 16 10 24 -10 8 -23 -8 -6 -31 -14
-52 -17 -22 -2 -40 -8 -42 -12 -1 -5 -16 -6 -33 -4 -38 6 -19 21 26 22 l30 1
-25 11 c-15 6 -20 12 -12 15 17 6 15 20 -4 27 -8 3 -13 2 -10 -3 3 -5 -1 -12
-10 -15 -8 -3 -13 -10 -9 -16 3 -5 -6 -12 -21 -16 -19 -5 -22 -9 -12 -15 19
-13 0 -11 -24 2 -18 10 -20 9 -15 -5 9 -22 -9 -21 -22 2 -9 15 -10 15 -11 1 0
-13 -9 -15 -50 -11 -33 3 -50 1 -50 -7 0 -6 -6 -10 -12 -8 -7 1 -12 -6 -10
-15 4 -24 -5 -23 -19 3 -8 15 -8 19 0 15 6 -4 11 -2 11 3 0 6 5 11 10 11 10 0
50 36 50 44 0 3 -9 4 -19 3 -11 0 -17 -5 -14 -10 3 -6 -7 -8 -25 -5 -17 2 -31
2 -30 -1 2 -20 -5 -29 -27 -39 -33 -15 -38 -15 -32 1 3 8 -5 14 -22 15 -20 1
-23 0 -11 -8 8 -5 11 -10 5 -10 -5 0 -16 4 -23 8 -8 6 3 16 35 32 73 36 113
71 113 99 0 19 3 22 11 14 8 -8 20 -9 36 -2 14 5 40 8 59 6 19 -3 34 0 34 4 0
5 12 9 26 9 14 0 23 -4 19 -10 -3 -5 -2 -10 4 -10 5 0 13 5 16 10 10 16 25 12
19 -5 -4 -10 0 -15 12 -16 17 0 16 -1 -2 -9 -12 -5 -25 -13 -29 -19 -3 -6 -11
-9 -16 -6 -5 4 -9 2 -9 -3 0 -13 29 -24 42 -16 5 3 7 12 4 19 -4 11 1 11 25 3
20 -7 29 -17 29 -31 0 -20 0 -20 15 -1 16 21 20 38 7 30 -4 -2 -14 -1 -21 3
-22 14 42 71 79 71 18 0 29 -4 25 -10 -3 -5 -13 -10 -20 -10 -17 0 -34 -30
-28 -47 6 -18 33 -16 33 1 0 16 34 31 50 21 5 -3 7 0 4 8 -7 18 6 27 46 32 31
4 31 4 16 -21 -18 -26 -15 -29 15 -14 10 6 19 17 19 24 0 7 14 16 31 20 74 15
115 1 69 -24 -16 -9 -19 -8 -14 7 5 17 5 17 -6 0 -6 -9 -8 -26 -5 -37 4 -11 2
-20 -4 -20 -6 0 -11 -4 -11 -10 0 -15 26 -12 39 4 9 11 9 16 1 21 -7 5 0 14
19 26 17 10 31 22 31 27 0 4 11 9 25 10 14 1 25 -3 25 -9 0 -8 5 -8 15 1 9 7
22 9 32 5 10 -5 25 -7 34 -6 9 1 19 -5 23 -14 3 -9 11 -13 16 -10 8 5 7 12 -2
23 -10 14 -10 15 2 5 11 -10 16 -9 26 5 12 15 12 15 7 -5 -5 -23 -70 -93 -85
-93 -4 0 -5 -6 -2 -14 3 -8 12 -12 20 -9 8 3 15 0 15 -6 1 -6 2 -17 3 -23 2
-19 32 -21 50 -3 23 24 20 33 -11 27 -32 -5 -22 12 12 22 11 3 2 3 -19 0 l-39
-6 41 40 c23 22 42 47 42 55 0 9 13 17 33 20 25 4 36 0 49 -17 20 -24 23 -41
6 -30 -7 4 -8 3 -4 -4 13 -22 32 -12 45 23 7 20 19 35 29 35 13 0 13 -2 -4
-16 -18 -15 -18 -15 8 -11 32 5 53 -6 44 -22 -4 -6 -12 -8 -18 -5 -6 4 -8 2
-4 -4 4 -6 -5 -12 -21 -15 l-28 -4 27 -2 c18 -1 33 8 48 26 l22 28 -7 -28
c-11 -41 22 -36 34 6 9 31 9 31 10 5 1 -15 6 -30 13 -34 7 -4 8 -3 4 5 -5 7
-5 24 -2 38 l7 25 26 -26 c14 -14 31 -26 37 -25 7 0 6 3 -1 6 -7 2 -13 11 -13
18 0 11 8 12 39 6 2 -1 -4 -13 -14 -27 -18 -28 -15 -40 10 -31 8 4 15 17 15
31 0 19 16 36 35 36 3 0 15 -54 18 -83 1 -9 6 -16 12 -14 5 3 9 13 8 24 -1 12
4 20 12 20 8 0 15 -4 15 -9 0 -5 4 -7 10 -3 16 10 0 33 -19 28 -11 -3 -21 2
-24 11 -4 10 -1 16 9 16 8 0 12 5 9 10 -4 6 -11 8 -16 5 -10 -7 -12 8 -2 18 9
10 23 9 23 -1z m-366 -9 c-5 -5 -12 -12 -15 -16 -3 -5 -9 -2 -12 7 -5 12 0 16
15 16 12 0 17 -3 12 -7z m291 -3 c-3 -5 -11 -10 -16 -10 -6 0 -7 5 -4 10 3 6
11 10 16 10 6 0 7 -4 4 -10z m165 6 c0 -3 -4 -8 -10 -11 -5 -3 -10 -1 -10 4 0
6 5 11 10 11 6 0 10 -2 10 -4z m125 -12 c-10 -8 -30 -11 -48 -7 -23 5 -28 3
-22 -6 6 -10 3 -11 -14 -1 -33 17 -19 25 44 26 48 0 54 -2 40 -12z m70 -23
c-1 -11 -10 -30 -20 -41 -18 -20 -18 -20 5 -18 30 4 38 -18 10 -27 -15 -5 -26
-1 -35 12 -8 10 -15 14 -15 9 0 -10 -50 33 -50 43 0 15 42 32 54 22 9 -8 18
-6 32 4 16 13 16 14 2 9 -13 -4 -18 -1 -18 10 0 13 4 15 18 7 10 -6 18 -19 17
-30z m50 19 c-3 -5 2 -10 12 -11 10 0 13 -3 6 -6 -7 -2 -13 -11 -13 -19 0 -10
-5 -12 -12 -8 -9 6 -9 3 1 -9 7 -9 24 -16 37 -15 12 1 21 4 19 6 -2 3 2 11 10
19 17 17 19 33 5 33 -5 0 -10 3 -10 8 0 4 24 8 53 10 49 3 53 1 65 -28 8 -16
12 -35 10 -42 -5 -14 31 -52 40 -43 4 4 -1 11 -10 16 -15 8 -15 13 -3 43 8 18
11 36 8 40 -4 3 -1 6 5 6 6 0 12 -7 14 -16 2 -13 8 -12 32 7 23 18 28 20 23 7
-3 -10 -2 -20 3 -23 4 -3 7 -16 6 -30 -2 -13 2 -26 9 -29 9 -3 15 12 19 45 6
46 9 50 29 43 12 -4 37 -6 55 -6 20 1 30 -3 27 -9 -4 -5 -1 -16 5 -24 9 -11 8
-21 -4 -46 -20 -39 -20 -39 -1 -39 8 0 15 9 15 19 0 11 5 21 11 23 6 2 13 18
15 36 2 20 0 31 -6 27 -6 -3 -10 -1 -10 4 0 15 50 14 51 -1 0 -10 2 -10 6 0 2
6 16 12 29 12 17 0 24 -6 24 -20 0 -19 39 -64 48 -55 2 2 -5 17 -17 33 -28 40
-27 43 17 40 36 -3 62 -18 62 -36 0 -5 10 -9 22 -8 14 1 27 -8 34 -22 10 -20
12 -21 18 -7 9 25 7 35 -8 35 -8 0 -16 7 -20 15 -4 11 1 15 17 15 18 0 19 -2
7 -10 -13 -8 -12 -10 3 -10 9 0 17 5 17 10 0 6 9 10 20 10 11 0 20 -7 20 -15
0 -8 4 -15 10 -15 5 0 7 7 4 15 -4 8 -1 15 5 15 6 0 11 -9 11 -20 0 -11 5 -20
11 -20 6 0 9 9 6 20 -5 19 -1 21 37 19 28 -2 53 -11 69 -25 32 -27 27 -52 -10
-48 -19 2 -23 0 -14 -9 8 -8 19 -8 41 0 19 7 28 7 24 1 -4 -6 2 -8 12 -6 12 2
18 11 17 25 -2 16 2 20 17 16 11 -3 20 -9 20 -14 0 -5 12 -15 28 -22 15 -6 35
-21 45 -32 18 -20 18 -20 8 2 -13 27 -14 36 -2 28 6 -3 14 3 20 12 9 16 12 16
21 3 8 -12 12 -13 19 -1 6 10 13 10 28 2 11 -5 23 -7 27 -4 3 3 6 1 6 -6 0 -8
8 -11 20 -8 10 3 22 0 25 -7 3 -6 3 -1 1 12 -4 19 0 22 25 22 21 0 29 -5 30
-17 1 -17 2 -17 6 0 5 20 24 22 41 5 9 -9 12 -9 12 -1 0 7 8 11 19 10 10 0 18
-8 17 -17 -1 -10 7 -15 22 -14 13 1 22 -4 22 -13 0 -8 -4 -11 -10 -8 -5 3 -10
0 -11 -7 0 -10 -2 -10 -6 0 -2 6 -12 12 -21 12 -23 0 -2 -19 28 -25 33 -6 37
-15 7 -15 -15 0 -29 0 -32 0 -3 0 -5 3 -4 6 1 8 -22 24 -35 24 -4 0 -6 -6 -3
-13 3 -8 -4 -12 -22 -11 -14 1 -26 3 -26 4 0 2 -10 4 -22 5 -12 1 -20 -1 -18
-5 6 -10 -113 -18 -123 -9 -13 12 -90 17 -101 6 -6 -6 -15 -7 -23 -1 -7 5 -31
9 -53 7 -43 -3 -54 -3 -130 0 -27 1 -61 -3 -75 -10 -27 -14 -43 -7 -20 7 11 7
0 10 -33 10 -30 0 -46 -4 -42 -10 4 -6 10 -8 15 -5 5 3 11 1 15 -5 10 -16 -17
-12 -37 7 -15 13 -23 14 -44 5 -34 -16 -52 -16 -36 0 7 7 12 16 12 20 0 12
-64 2 -68 -11 -2 -6 -8 -11 -14 -11 -6 0 -8 6 -5 13 7 17 -9 44 -20 34 -4 -5
-3 -11 3 -15 7 -5 6 -14 -1 -30 l-12 -23 -17 26 c-16 25 -56 35 -56 14 0 -6 7
-8 16 -5 8 3 12 2 9 -3 -6 -11 -44 -9 -63 3 -8 5 -10 2 -5 -10 5 -13 2 -16 -9
-12 -9 4 -21 1 -27 -5 -8 -8 -11 -7 -11 6 0 9 -5 17 -10 17 -6 0 -16 12 -22
28 -10 24 -12 25 -16 7 -2 -10 1 -21 7 -23 6 -2 9 -8 6 -13 -8 -12 -66 0 -87
19 -20 16 -53 9 -43 -10 4 -7 0 -5 -8 5 -8 9 -25 17 -38 16 -13 0 -18 -3 -11
-6 21 -8 13 -20 -14 -20 -19 0 -24 3 -19 15 5 14 3 13 -13 -1 -14 -13 -21 -14
-31 -4 -10 9 -11 8 -5 -7 6 -15 4 -17 -6 -11 -8 5 -26 10 -40 11 -23 3 -24 2
-7 -11 18 -13 18 -13 0 -18 -10 -3 -38 -4 -63 -4 -39 2 -45 5 -48 26 -4 22 -1
23 30 17 23 -4 29 -3 18 4 -14 9 -13 11 10 14 5 0 15 7 22 14 10 10 8 12 -10
12 -18 0 -22 6 -22 30 0 17 6 37 13 45 14 16 31 20 22 5z m200 1 c3 -5 1 -12
-5 -16 -5 -3 -10 1 -10 9 0 18 6 21 15 7z m65 -1 c0 -5 -4 -10 -10 -10 -5 0
-10 5 -10 10 0 6 5 10 10 10 6 0 10 -4 10 -10z m-2040 -28 c0 -14 -23 -32 -42
-32 -22 0 -14 27 10 33 28 8 32 7 32 -1z m1560 -22 c0 -5 -4 -10 -10 -10 -5 0
-10 5 -10 10 0 6 5 10 10 10 6 0 10 -4 10 -10z m1324 -18 c3 -5 -1 -9 -9 -9
-8 0 -12 4 -9 9 3 4 7 8 9 8 2 0 6 -4 9 -8z m430 -14 c-3 -4 -9 -8 -15 -8 -5
0 -9 4 -9 8 0 5 7 9 15 9 8 0 12 -4 9 -9z m63 -11 c-4 16 -1 20 10 16 8 -3 12
-12 8 -21 -3 -8 2 -26 11 -40 12 -18 13 -23 2 -20 -15 5 -58 66 -58 82 1 6 8
0 16 -14 14 -23 15 -23 11 -3z m111 -19 c9 -11 29 -18 52 -18 39 0 49 20 26
49 -9 12 -8 12 12 2 12 -6 23 -15 23 -19 10 -53 9 -54 -43 -50 -41 2 -46 1
-31 -9 16 -12 16 -13 -1 -13 -9 0 -14 -4 -11 -10 3 -5 2 -10 -4 -10 -14 0 -23
18 -11 22 7 2 5 11 -4 23 -10 13 -18 16 -23 9 -5 -6 -18 -7 -33 -3 l-25 7 27
1 c25 1 27 4 23 34 -3 17 -2 25 1 17 4 -8 13 -23 22 -32z m132 32 c0 -5 -4
-10 -10 -10 -5 0 -10 5 -10 10 0 6 5 10 10 10 6 0 10 -4 10 -10z m76 -4 c8 -8
14 -19 14 -25 0 -6 -9 -2 -20 9 -11 11 -20 22 -20 25 0 9 11 5 26 -9z m62 7
c-10 -2 -26 -2 -35 0 -10 3 -2 5 17 5 19 0 27 -2 18 -5z m178 -2 c-5 -8 -56
-3 -56 5 0 2 14 4 31 4 16 0 28 -4 25 -9z m-100 -38 c-7 -7 -26 7 -26 19 0 6
6 6 15 -2 9 -7 13 -15 11 -17z m-499 11 c-3 -3 -12 -4 -19 -1 -8 3 -5 6 6 6
11 1 17 -2 13 -5z m713 -5 c12 -8 11 -9 -5 -5 -16 5 -21 1 -22 -15 -1 -12 -5
-24 -8 -28 -7 -7 -45 36 -45 50 0 12 62 11 80 -2z m-286 -58 c-5 -5 -44 30
-44 40 0 4 11 -2 24 -14 14 -12 23 -24 20 -26z m-111 22 c-4 -10 -9 -11 -19
-2 -18 15 -18 15 5 15 11 0 17 -5 14 -13z m-1619 -7 c8 3 16 -1 19 -9 4 -10
-1 -13 -19 -9 -14 2 -24 11 -23 21 0 9 3 11 5 4 3 -7 11 -10 18 -7z m-928 -11
c18 -13 18 -14 1 -15 -11 0 -15 -5 -11 -11 4 -8 1 -8 -12 -1 -11 5 -25 7 -32
5 -9 -3 -7 3 4 16 22 25 24 25 50 6z m1384 5 c0 -5 -5 -10 -11 -10 -5 0 -7 5
-4 10 3 6 8 10 11 10 2 0 4 -4 4 -10z m-3050 -10 c0 -5 8 -10 18 -10 13 0 14
-2 3 -9 -8 -5 -24 -8 -37 -6 -13 1 -21 -2 -18 -6 3 -5 -5 -9 -18 -8 -13 0 -17
3 -10 6 6 2 12 9 12 14 0 6 -4 7 -10 4 -5 -3 -10 -4 -10 0 0 7 39 23 58 24 6
1 12 -3 12 -9z m326 -6 c16 4 23 3 16 0 -6 -3 -9 -11 -6 -16 5 -8 -4 -9 -26
-5 -18 4 -42 7 -54 7 -20 1 -19 2 4 15 15 8 27 10 31 4 3 -6 19 -8 35 -5z
m609 6 c3 -5 1 -10 -4 -10 -6 0 -11 5 -11 10 0 6 2 10 4 10 3 0 8 -4 11 -10z
m2384 -6 c2 -2 -21 -4 -52 -4 -31 0 -57 4 -57 10 0 8 99 3 109 -6z m41 -5 c0
-5 -4 -9 -10 -9 -5 0 -10 7 -10 16 0 8 5 12 10 9 6 -3 10 -10 10 -16z m590 11
c0 -5 -2 -10 -4 -10 -3 0 -8 5 -11 10 -3 6 -1 10 4 10 6 0 11 -4 11 -10z m245
0 c3 -6 -1 -7 -9 -4 -18 7 -21 14 -7 14 6 0 13 -4 16 -10z m-4502 -10 c-13 -5
-23 -15 -23 -21 0 -7 -2 -10 -5 -7 -12 11 9 38 29 37 21 0 21 0 -1 -9z m777
-4 c47 -15 36 -21 -19 -10 -17 4 -31 10 -31 15 0 11 -4 11 50 -5z m900 -9 c9
-3 4 -6 -12 -6 -27 -1 -35 8 -21 22 4 4 9 3 12 -1 3 -5 13 -12 21 -15z m345
13 c3 -5 1 -10 -4 -10 -6 0 -11 5 -11 10 0 6 2 10 4 10 3 0 8 -4 11 -10z m540
0 c3 -5 -1 -10 -10 -10 -9 0 -13 5 -10 10 3 6 8 10 10 10 2 0 7 -4 10 -10z
m1278 -11 c-4 -13 -9 -17 -15 -11 -11 11 -3 32 12 32 4 0 6 -9 3 -21z m73 1
c0 -11 -6 -20 -13 -20 -16 0 -17 12 -1 28 7 7 12 12 13 12 0 0 1 -9 1 -20z
m84 16 c0 -3 -4 -8 -10 -11 -5 -3 -10 -1 -10 4 0 6 5 11 10 11 6 0 10 -2 10
-4z m-3773 -21 c0 -8 -6 -15 -14 -15 -14 0 -17 12 -6 23 11 11 20 8 20 -8z
m1843 5 c0 -5 -5 -10 -11 -10 -5 0 -7 5 -4 10 3 6 8 10 11 10 2 0 4 -4 4 -10z
m1810 -5 c0 -8 -4 -15 -10 -15 -5 0 -10 7 -10 15 0 8 5 15 10 15 6 0 10 -7 10
-15z m250 5 c0 -5 -2 -10 -4 -10 -3 0 -8 5 -11 10 -3 6 -1 10 4 10 6 0 11 -4
11 -10z m1066 -2 c5 -7 2 -9 -7 -4 -8 4 -5 0 5 -8 19 -15 18 -16 -22 -14 l-42
1 28 18 c15 10 28 18 29 18 1 1 5 -4 9 -11z m-4311 -8 c3 -5 -1 -10 -9 -10 -9
0 -16 5 -16 10 0 6 4 10 9 10 6 0 13 -4 16 -10z m378 3 c-7 -2 -19 -2 -25 0
-7 3 -2 5 12 5 14 0 19 -2 13 -5z m2993 -2 c-3 -5 -15 -7 -26 -4 -28 7 -25 13
6 13 14 0 23 -4 20 -9z m54 -6 c-12 -15 -30 -12 -30 6 0 5 10 9 21 9 18 0 19
-2 9 -15z m85 -4 c2 -4 -9 -5 -26 -3 -16 2 -29 8 -29 12 0 9 48 1 55 -9z m545
15 c0 -3 -4 -8 -10 -11 -5 -3 -10 -1 -10 4 0 6 5 11 10 11 6 0 10 -2 10 -4z
m-475 -17 c11 -17 -1 -21 -15 -4 -8 9 -8 15 -2 15 6 0 14 -5 17 -11z m192 1
c47 0 35 -13 -13 -14 -20 -1 -41 5 -47 13 -10 12 -9 13 6 8 10 -4 35 -7 54 -7z
m406 3 c-13 -2 -33 -2 -45 0 -13 2 -3 4 22 4 25 0 35 -2 23 -4z m-5246 -9 c-3
-3 -12 -4 -19 -1 -8 3 -5 6 6 6 11 1 17 -2 13 -5z m690 0 c-3 -3 -12 -4 -19
-1 -8 3 -5 6 6 6 11 1 17 -2 13 -5z m-507 -14 c0 -5 -2 -10 -4 -10 -3 0 -8 5
-11 10 -3 6 -1 10 4 10 6 0 11 -4 11 -10z m4780 0 c0 -5 -2 -10 -4 -10 -3 0
-8 5 -11 10 -3 6 -1 10 4 10 6 0 11 -4 11 -10z m73 -7 c-7 -2 -19 -2 -25 0 -7
3 -2 5 12 5 14 0 19 -2 13 -5z m124 -9 c-3 -3 -12 -4 -19 -1 -8 3 -5 6 6 6 11
1 17 -2 13 -5z m158 -26 c6 -4 2 -8 -7 -8 -10 0 -18 7 -18 17 0 9 3 12 8 7 4
-5 12 -12 17 -16z m-2635 -262 c0 -2 -7 -6 -15 -10 -8 -3 -15 -1 -15 4 0 6 7
10 15 10 8 0 15 -2 15 -4z m220 -221 c7 -8 8 -15 2 -15 -5 0 -15 7 -22 15 -7
8 -8 15 -2 15 5 0 15 -7 22 -15z m1700 -75 c0 -5 -2 -10 -4 -10 -3 0 -8 5 -11
10 -3 6 -1 10 4 10 6 0 11 -4 11 -10z m705 -60 c3 -6 -1 -7 -9 -4 -18 7 -21
14 -7 14 6 0 13 -4 16 -10z m-2535 -575 c10 -12 10 -15 -4 -15 -9 0 -16 7 -16
15 0 8 2 15 4 15 2 0 9 -7 16 -15z m-1057 -202 c-7 -2 -19 -2 -25 0 -7 3 -2 5
12 5 14 0 19 -2 13 -5z m2197 -109 c0 -2 -7 -4 -15 -4 -8 0 -15 4 -15 10 0 5
7 7 15 4 8 -4 15 -8 15 -10z m-1400 -29 c-7 -9 -15 -13 -19 -10 -3 3 1 10 9
15 21 14 24 12 10 -5z m1400 4 c0 -4 -7 -9 -15 -13 -9 -3 -15 0 -15 8 0 7 7
13 15 13 8 0 15 -4 15 -8z m-1436 -14 c-7 -17 -20 -20 -28 -6 -4 5 0 12 6 14
23 9 28 7 22 -8z m-2317 -32 c-3 -3 -11 -2 -17 2 -8 5 -7 11 2 22 12 15 13 14
16 -1 2 -10 1 -20 -1 -23z m3763 17 c0 -5 -5 -10 -11 -10 -5 0 -7 5 -4 10 3 6
8 10 11 10 2 0 4 -4 4 -10z m-3061 -14 c-12 -10 -60 -16 -54 -6 3 5 18 10 32
10 15 0 24 -2 22 -4z m828 -11 c0 -8 -4 -12 -9 -9 -5 3 -6 10 -3 15 9 13 12
11 12 -6z m2106 8 c-7 -2 -13 -14 -13 -24 0 -11 -5 -17 -10 -14 -13 8 6 45 23
44 9 0 9 -2 0 -6z m108 -23 c-9 -5 -9 -9 3 -13 9 -4 16 -2 16 4 0 6 5 7 10 4
6 -3 10 -10 10 -14 0 -12 -33 -9 -55 5 -12 9 -14 14 -6 14 11 0 11 3 0 17 -13
15 -12 15 10 4 16 -9 20 -15 12 -21z m-31 -25 c0 -12 -29 -3 -34 10 -4 13 -2
14 14 5 11 -6 20 -13 20 -15z m-2270 1 c0 -3 -4 -8 -10 -11 -5 -3 -10 -1 -10
4 0 6 5 11 10 11 6 0 10 -2 10 -4z m2224 -5 c4 -5 -3 -7 -14 -4 -23 6 -26 13
-6 13 8 0 17 -4 20 -9z m-3014 -36 c-13 -14 -26 -22 -29 -19 -3 3 5 14 18 25
33 27 39 24 11 -6z m1170 11 c0 -3 -4 -8 -10 -11 -5 -3 -10 -1 -10 4 0 6 5 11
10 11 6 0 10 -2 10 -4z m1600 0 c0 -3 -4 -8 -10 -11 -5 -3 -10 -1 -10 4 0 6 5
11 10 11 6 0 10 -2 10 -4z m945 -7 c11 -17 2 -18 -19 -3 -17 12 -17 14 -4 14
9 0 20 -5 23 -11z m-2945 -3 c0 -2 -8 -10 -17 -17 -16 -13 -17 -12 -4 4 13 16
21 21 21 13z m50 -22 c0 -2 -7 -4 -15 -4 -8 0 -15 4 -15 10 0 5 7 7 15 4 8 -4
15 -8 15 -10z m1904 1 c11 -8 15 -15 10 -15 -6 0 -16 6 -23 13 -11 10 -13 9
-7 -6 4 -12 2 -17 -6 -15 -15 5 -19 38 -5 38 7 0 21 -7 31 -15z m56 1 c0 -11
-19 -15 -25 -6 -3 5 1 10 9 10 9 0 16 -2 16 -4z m-310 -50 c0 -2 -7 -7 -16
-10 -8 -3 -12 -2 -9 4 6 10 25 14 25 6z m203 -3 c-7 -2 -19 -2 -25 0 -7 3 -2
5 12 5 14 0 19 -2 13 -5z m147 3 c0 -2 -7 -7 -16 -10 -8 -3 -12 -2 -9 4 6 10
25 14 25 6z m50 -11 c0 -8 -8 -15 -17 -14 -11 0 -13 3 -5 6 6 2 10 9 6 14 -3
5 0 9 5 9 6 0 11 -7 11 -15z m-1090 -29 c-5 -5 -10 -17 -10 -26 0 -9 -6 -17
-12 -18 -84 -7 -99 -3 -78 23 15 18 60 20 60 3 0 -9 4 -8 10 2 15 24 13 25
-35 22 -31 -3 -45 -9 -45 -18 0 -8 -7 -17 -15 -20 -11 -4 -12 -10 -6 -18 8 -9
1 -12 -24 -12 -40 0 -44 8 -12 25 21 11 21 11 -5 6 -16 -3 -28 -3 -28 -1 0 3
12 12 28 21 24 14 24 15 3 9 -16 -4 -21 -3 -17 5 4 6 33 11 64 11 31 0 63 4
71 9 19 12 65 -9 51 -23z m925 14 c3 -5 2 -10 -4 -10 -5 0 -13 5 -16 10 -3 6
-2 10 4 10 5 0 13 -4 16 -10z m920 -18 c-3 -3 -11 0 -18 7 -9 10 -8 11 6 5 10
-3 15 -9 12 -12z m35 4 c0 -7 -6 -19 -14 -25 -11 -9 -12 -6 -8 14 5 26 22 35
22 11z m-150 -31 c0 -5 -5 -3 -10 5 -5 8 -10 20 -10 25 0 6 5 3 10 -5 5 -8 10
-19 10 -25z m80 25 c0 -9 -40 -30 -56 -30 -13 0 -1 17 19 26 30 15 37 16 37 4z
m-410 -45 c-7 -8 -17 -12 -23 -8 -6 4 -3 9 9 14 27 11 28 11 14 -6z m305 5 c3
-5 1 -10 -4 -10 -6 0 -11 5 -11 10 0 6 2 10 4 10 3 0 8 -4 11 -10z m45 -4 c0
-3 -4 -8 -10 -11 -5 -3 -10 -1 -10 4 0 6 5 11 10 11 6 0 10 -2 10 -4z"/>
<path d="M3720 3251 c-6 -12 -7 -21 -1 -21 10 0 24 30 17 37 -2 3 -9 -5 -16
-16z"/>
<path d="M1267 3220 c3 -11 9 -20 13 -20 5 0 6 9 3 20 -3 11 -9 20 -13 20 -5
0 -6 -9 -3 -20z"/>
<path d="M2034 2096 c-8 -22 3 -33 18 -18 9 9 9 15 0 24 -9 9 -13 7 -18 -6z"/>
<path d="M2070 2098 c0 -18 18 -34 28 -24 3 4 -2 14 -11 23 -16 16 -17 16 -17
1z"/>
<path d="M1930 2085 c-7 -9 -8 -15 -2 -15 5 0 12 7 16 15 3 8 4 15 2 15 -2 0
-9 -7 -16 -15z"/>
<path d="M1349 2079 c-11 -7 -11 -9 -1 -9 7 0 10 -5 6 -11 -3 -6 -16 -8 -28
-5 -20 5 -20 5 -2 -9 14 -11 23 -12 33 -4 7 6 19 9 26 6 7 -3 13 3 14 13 2 20
-28 32 -48 19z"/>
<path d="M2180 2071 c0 -5 6 -11 13 -14 9 -3 9 -7 -1 -19 -10 -13 -10 -17 3
-22 8 -3 15 -1 15 3 0 5 3 16 6 24 3 10 -3 20 -15 27 -12 6 -21 7 -21 1z"/>
<path d="M1765 2060 c-4 -6 -11 -8 -16 -5 -5 4 -9 -1 -9 -10 0 -11 -5 -15 -16
-11 -9 3 -12 2 -9 -5 4 -5 12 -8 18 -6 7 2 19 1 28 -4 8 -4 22 -3 30 2 11 7
10 9 -6 9 -18 1 -19 1 -2 11 9 5 17 14 17 19 0 13 -27 13 -35 0z"/>
<path d="M2485 2060 c-3 -5 -2 -10 4 -10 5 0 13 5 16 10 3 6 2 10 -4 10 -5 0
-13 -4 -16 -10z"/>
<path d="M2585 2060 c3 -5 8 -10 11 -10 2 0 4 5 4 10 0 6 -5 10 -11 10 -5 0
-7 -4 -4 -10z"/>
<path d="M1665 2050 c-3 -5 -2 -10 4 -10 5 0 13 5 16 10 3 6 2 10 -4 10 -5 0
-13 -4 -16 -10z"/>
<path d="M2437 2039 c5 -17 2 -19 -21 -13 -20 5 -26 2 -26 -9 0 -9 5 -19 12
-23 8 -5 9 -2 5 10 -6 14 -4 15 16 5 12 -7 25 -16 28 -22 11 -16 25 0 24 29 0
18 -7 29 -21 35 -18 6 -21 4 -17 -12z"/>
<path d="M2320 2040 c0 -5 5 -10 10 -10 6 0 10 5 10 10 0 6 -4 10 -10 10 -5 0
-10 -4 -10 -10z"/>
<path d="M1354 2020 c-15 -6 -21 -17 -21 -36 0 -21 1 -24 9 -11 5 9 16 14 26
11 14 -5 15 -4 2 5 -12 8 -12 11 3 17 9 3 17 10 17 15 0 11 -8 11 -36 -1z"/>
<path d="M1400 2023 c0 -13 29 -38 35 -31 3 3 -4 13 -15 23 -11 10 -20 13 -20
8z"/>
<path d="M1910 2020 c0 -5 5 -10 11 -10 5 0 7 5 4 10 -3 6 -8 10 -11 10 -2 0
-4 -4 -4 -10z"/>
<path d="M1581 2004 c0 -11 3 -14 6 -6 3 7 2 16 -1 19 -3 4 -6 -2 -5 -13z"/>
<path d="M2346 2010 c-17 -6 -18 -7 -3 -13 9 -3 19 -2 23 4 9 15 2 18 -20 9z"/>
<path d="M2670 2006 c0 -2 7 -6 15 -10 8 -3 15 -1 15 4 0 6 -7 10 -15 10 -8 0
-15 -2 -15 -4z"/>
<path d="M2210 1989 c0 -5 5 -7 10 -4 6 3 10 8 10 11 0 2 -4 4 -10 4 -5 0 -10
-5 -10 -11z"/>
<path d="M1800 1962 c0 -5 7 -9 15 -9 8 0 15 4 15 9 0 4 -7 8 -15 8 -8 0 -15
-4 -15 -8z"/>
<path d="M2860 2073 c0 -19 21 -27 33 -13 9 10 9 11 -2 5 -8 -4 -17 -2 -22 6
-6 9 -9 10 -9 2z"/>
<path d="M3075 2110 c3 -5 8 -10 11 -10 2 0 4 5 4 10 0 6 -5 10 -11 10 -5 0
-7 -4 -4 -10z"/>
<path d="M3334 2099 c0 -9 4 -15 9 -12 4 2 16 1 25 -3 31 -13 38 -12 39 7 1
11 -2 17 -6 15 -5 -3 -21 -2 -37 3 -25 7 -30 6 -30 -10z"/>
<path d="M3613 2089 c-7 -7 -3 -18 14 -35 29 -30 37 -27 24 9 -12 31 -25 39
-38 26z"/>
<path d="M3499 2068 c-9 -19 -9 -21 2 -10 18 16 29 15 29 -3 0 -8 -5 -15 -12
-15 -6 0 -9 -2 -7 -5 3 -2 15 -2 27 2 16 4 22 12 20 27 -4 31 -43 33 -59 4z"/>
<path d="M3917 2070 c-6 -24 -7 -24 -22 -5 -16 19 -16 19 -12 -7 2 -15 -1 -29
-7 -32 -6 -2 -4 -5 5 -5 19 -1 52 44 46 62 -2 6 -6 0 -10 -13z"/>
<path d="M3347 2060 c-3 -11 -2 -20 3 -20 12 0 21 28 11 35 -5 2 -11 -4 -14
-15z"/>
<path d="M3950 2060 c0 -5 5 -10 11 -10 5 0 7 5 4 10 -3 6 -8 10 -11 10 -2 0
-4 -4 -4 -10z"/>
<path d="M3770 2042 c0 -9 38 -52 45 -52 9 0 5 7 -20 34 -14 15 -25 23 -25 18z"/>
<path d="M3080 2019 c0 -18 2 -19 15 -9 8 7 15 16 15 21 0 5 -7 9 -15 9 -9 0
-15 -9 -15 -21z"/>
<path d="M3680 2007 c0 -8 7 -14 15 -14 11 0 12 4 4 14 -6 7 -13 13 -15 13 -2
0 -4 -6 -4 -13z"/>
<path d="M4405 2010 c3 -5 11 -10 16 -10 6 0 7 5 4 10 -3 6 -11 10 -16 10 -6
0 -7 -4 -4 -10z"/>
<path d="M2970 2000 c0 -5 4 -10 9 -10 6 0 13 5 16 10 3 6 -1 10 -9 10 -9 0
-16 -4 -16 -10z"/>
<path d="M4240 1989 c7 -11 14 -19 16 -16 7 7 -7 37 -17 37 -6 0 -5 -9 1 -21z"/>
<path d="M4360 1990 c0 -5 5 -10 10 -10 6 0 10 5 10 10 0 6 -4 10 -10 10 -5 0
-10 -4 -10 -10z"/>
<path d="M2950 1970 c0 -5 7 -7 15 -4 8 4 15 8 15 10 0 2 -7 4 -15 4 -8 0 -15
-4 -15 -10z"/>
<path d="M2680 49 c0 -5 5 -7 10 -4 6 3 10 8 10 11 0 2 -4 4 -10 4 -5 0 -10
-5 -10 -11z"/>
<path d="M5338 5233 c7 -3 16 -2 19 1 4 3 -2 6 -13 5 -11 0 -14 -3 -6 -6z"/>
<path d="M1180 5159 c-102 -3 -254 -7 -337 -8 l-153 -1 5 -42 c3 -24 9 -182
15 -353 6 -170 12 -371 15 -445 13 -334 25 -706 27 -823 2 -71 6 -131 10 -133
7 -5 482 23 523 30 11 2 -49 4 -132 5 -129 1 -153 3 -153 16 0 12 16 15 78 16
42 1 136 5 207 8 l130 8 -210 3 -210 3 152 7 c84 3 156 10 160 14 5 4 -10 7
-32 6 -74 -4 -75 -3 -75 38 0 23 3 32 9 24 5 -8 7 6 5 35 -5 88 -4 365 2 375
3 5 11 5 17 0 7 -5 39 -6 72 -2 33 4 46 8 29 9 -19 0 -34 8 -38 17 -6 15 -8
15 -26 -1 -24 -22 -27 -10 -3 13 10 10 40 19 77 23 59 6 58 6 -29 8 -89 3 -90
18 -1 20 22 1 37 3 35 5 -9 9 -119 13 -119 5 0 -5 -4 -9 -9 -9 -15 0 -27 197
-35 568 -2 112 0 144 11 154 11 9 13 8 11 -3 -3 -14 -1 -14 83 -11 50 2 43 22
-9 23 -30 0 -33 2 -17 9 16 7 10 9 -25 10 -51 3 -41 6 43 15 34 4 55 11 51 16
-3 6 -20 7 -37 3 -18 -3 -29 -3 -25 1 4 4 31 11 60 15 l53 8 -67 1 c-113 2
-76 18 59 25 70 4 128 8 129 9 1 1 7 61 14 132 6 72 14 138 16 148 6 19 -7 20
-356 6z m330 -13 c0 -8 -51 -13 -56 -5 -3 5 9 9 25 9 17 0 31 -2 31 -4z m-82
-13 c-10 -2 -26 -2 -35 0 -10 3 -2 5 17 5 19 0 27 -2 18 -5z m92 -43 c0 -19
-6 -20 -107 -18 l-108 2 80 6 80 6 -60 3 c-54 3 -57 4 -25 11 19 4 59 8 88 9
46 1 52 -1 52 -19z m-322 -126 c1 60 4 107 6 105 2 -2 6 -52 8 -111 3 -87 2
-108 -10 -113 -8 -3 -17 -3 -20 0 -10 10 -14 164 -6 202 8 32 10 19 14 -77 l6
-115 2 109z m-381 -26 c-2 -13 -4 -3 -4 22 0 25 2 35 4 23 2 -13 2 -33 0 -45z
m-80 -170 c-2 -18 -4 -6 -4 27 0 33 2 48 4 33 2 -15 2 -42 0 -60z m28 -360 c5
-99 4 -158 -2 -158 -14 0 -23 153 -21 329 1 135 2 140 9 66 4 -44 10 -151 14
-237z m62 -196 c5 -116 5 -212 2 -212 -8 0 -18 197 -23 480 -4 215 -4 223 5
90 5 -80 12 -241 16 -358z m13 381 c0 -59 -2 -104 -4 -102 -9 10 -14 219 -5
214 5 -4 9 -54 9 -112z m9 -231 c-2 -94 -3 -100 -9 -52 -12 83 -12 172 0 165
6 -4 9 -51 9 -113z m10 -255 c1 -38 -3 -66 -8 -63 -5 3 -9 52 -9 108 0 81 2
94 8 63 5 -22 9 -71 9 -108z m-94 114 c3 -5 1 -12 -5 -16 -5 -3 -10 1 -10 9 0
18 6 21 15 7z m5 -81 c0 -11 -4 -20 -10 -20 -5 0 -10 9 -10 20 0 11 5 20 10
20 6 0 10 -9 10 -20z m6 -167 c2 -70 6 -140 10 -155 3 -16 1 -28 -4 -28 -5 0
-12 28 -16 61 -8 78 -8 264 0 256 3 -3 8 -63 10 -134z m421 75 c-3 -8 -6 -5
-6 6 -1 11 2 17 5 13 3 -3 4 -12 1 -19z m-179 -5 c-15 -2 -42 -2 -60 0 -18 2
-6 4 27 4 33 0 48 -2 33 -4z m165 -60 c-13 -2 -33 -2 -45 0 -13 2 -3 4 22 4
25 0 35 -2 23 -4z m57 -3 c0 -5 -7 -10 -15 -10 -8 0 -15 5 -15 10 0 6 7 10 15
10 8 0 15 -4 15 -10z m-43 -62 c-3 -8 -6 -5 -6 6 -1 11 2 17 5 13 3 -3 4 -12
1 -19z m-353 -213 c4 -126 3 -204 -3 -195 -10 18 -21 424 -11 413 4 -4 11
-102 14 -218z m25 58 c1 -36 -3 -63 -9 -63 -6 0 -9 43 -9 113 1 93 3 103 9 62
5 -27 9 -78 9 -112z m-89 -58 c-7 -45 -7 -46 -9 -13 -1 32 8 74 14 66 1 -2 -1
-25 -5 -53z m300 7 c0 -5 -39 -8 -87 -9 l-88 0 70 7 c39 3 78 7 88 8 9 1 17
-2 17 -6z m35 -2 c-3 -5 -10 -10 -16 -10 -5 0 -9 5 -9 10 0 6 7 10 16 10 8 0
12 -4 9 -10z m45 0 c0 -5 -4 -10 -10 -10 -5 0 -10 5 -10 10 0 6 5 10 10 10 6
0 10 -4 10 -10z m-288 -132 c3 -54 2 -95 -2 -93 -4 3 -8 48 -9 102 -3 124 5
118 11 -9z m295 -94 c-3 -3 -12 -4 -19 -1 -8 3 -5 6 6 6 11 1 17 -2 13 -5z
m-54 -11 c-7 -2 -21 -2 -30 0 -10 3 -4 5 12 5 17 0 24 -2 18 -5z m-263 -13 c0
-5 -5 -10 -11 -10 -5 0 -7 5 -4 10 3 6 8 10 11 10 2 0 4 -4 4 -10z m23 -34 c4
-10 1 -13 -8 -9 -8 3 -12 9 -9 14 7 12 11 11 17 -5z m110 -43 c-7 -2 -21 -2
-30 0 -10 3 -4 5 12 5 17 0 24 -2 18 -5z"/>
<path d="M1598 5153 c12 -2 30 -2 40 0 9 3 -1 5 -23 4 -22 0 -30 -2 -17 -4z"/>
<path d="M1653 5075 c0 -38 2 -53 4 -32 2 20 2 52 0 70 -2 17 -4 1 -4 -38z"/>
<path d="M3431 5124 c0 -11 3 -14 6 -6 3 7 2 16 -1 19 -3 4 -6 -2 -5 -13z"/>
<path d="M2923 5060 c0 -36 2 -50 4 -32 2 17 2 47 0 65 -2 17 -4 3 -4 -33z"/>
<path d="M3443 4880 c0 -107 3 -215 7 -240 10 -60 10 223 1 345 -6 73 -8 53
-8 -105z"/>
<path d="M1664 4895 c0 -55 1 -76 3 -47 2 29 2 74 0 100 -2 26 -3 2 -3 -53z"/>
<path d="M3058 4783 l-108 -4 0 -73 c0 -40 3 -88 6 -105 l7 -32 76 6 c42 3
109 8 149 11 l72 6 0 46 c0 26 -3 71 -6 100 l-7 52 -41 -2 c-23 -1 -89 -4
-148 -5z"/>
<path d="M1661 4764 c0 -11 3 -14 6 -6 3 7 2 16 -1 19 -3 4 -6 -2 -5 -13z"/>
<path d="M1662 4720 c0 -14 2 -19 5 -12 2 6 2 18 0 25 -3 6 -5 1 -5 -13z"/>
<path d="M1313 4723 l-83 -4 0 -101 0 -101 147 7 c81 4 149 8 151 10 2 2 0 47
-4 100 l-7 96 -61 -2 c-33 -1 -98 -4 -143 -5z"/>
<path d="M3068 4553 l-108 -4 0 -105 0 -104 113 5 c61 3 132 8 156 11 42 5 43
6 37 36 -3 17 -6 61 -6 99 l0 69 -42 -2 c-24 -1 -91 -4 -150 -5z"/>
<path d="M1276 4492 l-48 -3 6 -37 c3 -20 6 -66 6 -101 l0 -64 147 7 c81 3
147 7 147 9 1 1 0 46 -2 100 l-3 98 -102 -3 c-56 -2 -124 -4 -151 -6z"/>
<path d="M3360 4328 c0 -4 20 -8 44 -8 38 0 45 -3 49 -22 5 -20 5 -20 4 2 -2
22 -8 26 -49 30 -27 3 -48 2 -48 -2z"/>
<path d="M2969 4316 c-2 -2 -3 -49 -1 -105 l3 -100 122 5 c67 3 136 7 152 9
l30 5 -3 95 -3 95 -148 0 c-81 0 -150 -2 -152 -4z"/>
<path d="M1226 4272 c7 -4 15 -53 19 -111 l7 -104 106 7 c58 3 122 6 144 6
l38 0 0 101 0 100 -140 -2 c-77 -1 -143 1 -147 4 -3 4 -13 7 -22 7 -11 0 -12
-3 -5 -8z"/>
<path d="M1648 4263 c6 -2 18 -2 25 0 6 3 1 5 -13 5 -14 0 -19 -2 -12 -5z"/>
<path d="M3462 4075 c0 -16 2 -22 5 -12 2 9 2 23 0 30 -3 6 -5 -1 -5 -18z"/>
<path d="M4393 3997 l-283 -9 1 -152 c1 -83 4 -196 8 -251 l6 -100 105 2 c58
1 208 5 334 9 l229 6 -7 142 c-3 77 -9 192 -12 254 l-7 112 -46 -2 c-25 -1
-173 -6 -328 -11z m257 -352 c0 -19 -5 -25 -21 -25 -11 0 -29 -5 -40 -10 -20
-11 -24 -4 -10 19 7 11 42 32 69 40 1 1 2 -10 2 -24z"/>
<path d="M2977 3973 c-3 -5 -3 -49 0 -99 l6 -92 102 -4 c56 -2 123 -2 148 0
l47 4 0 99 0 99 -149 0 c-83 0 -152 -3 -154 -7z"/>
<path d="M1253 3915 c-7 -19 1 -182 10 -191 3 -3 69 -3 146 1 l141 7 0 99 0
99 -145 0 c-122 0 -147 -3 -152 -15z"/>
<path d="M1251 3700 c4 -3 10 -50 11 -105 l3 -98 125 2 c185 3 173 -4 168 102
-2 49 -6 90 -9 93 -2 2 -72 6 -156 8 -83 2 -147 1 -142 -2z"/>
<path d="M4060 3546 c0 -2 8 -10 18 -17 15 -13 16 -12 3 4 -13 16 -21 21 -21
13z"/>
<path d="M1989 3473 c-28 -33 -111 -93 -121 -86 -6 3 -8 1 -5 -4 4 -6 -23 -38
-58 -72 -36 -33 -59 -61 -50 -61 8 0 37 21 63 48 83 82 157 148 173 154 31 12
14 -34 -18 -47 -17 -7 -34 -18 -37 -24 -10 -16 -1 -14 41 9 20 10 39 17 43 15
4 -2 20 9 35 25 16 17 25 30 20 30 -4 0 -14 -8 -21 -17 -15 -21 -34 -8 -37 26
-2 25 -10 27 -28 4z"/>
<path d="M4155 3450 c10 -11 20 -20 23 -20 3 0 -3 9 -13 20 -10 11 -20 20 -23
20 -3 0 3 -9 13 -20z"/>
<path d="M1771 3443 c7 -10 15 -20 16 -22 2 -2 3 5 3 17 0 14 -6 22 -16 22
-14 0 -15 -3 -3 -17z"/>
<path d="M4145 3420 c21 -22 41 -40 43 -40 2 0 -11 18 -28 40 -17 22 -37 40
-43 40 -6 0 7 -18 28 -40z"/>
<path d="M4205 3400 c10 -11 20 -20 23 -20 3 0 -3 9 -13 20 -10 11 -20 20 -23
20 -3 0 3 -9 13 -20z"/>
<path d="M1730 3393 c0 -10 4 -14 8 -8 4 6 11 13 16 18 5 4 2 7 -7 7 -10 0
-17 -8 -17 -17z"/>
<path d="M1762 3395 c-7 -8 -9 -15 -4 -15 5 0 15 7 22 15 16 19 -1 19 -18 0z"/>
<path d="M1671 3374 c0 -11 3 -14 6 -6 3 7 2 16 -1 19 -3 4 -6 -2 -5 -13z"/>
<path d="M1826 3375 c-3 -8 -1 -15 3 -15 5 0 11 7 15 15 3 8 1 15 -3 15 -5 0
-11 -7 -15 -15z"/>
<path d="M1946 3364 c-47 -17 -120 -80 -104 -90 6 -4 21 4 34 19 12 14 45 38
73 52 71 37 69 46 -3 19z"/>
<path d="M1631 3351 c-9 -6 -4 -10 18 -13 24 -4 28 -2 20 9 -13 15 -19 16 -38
4z"/>
<path d="M1790 3340 c0 -5 5 -10 11 -10 5 0 7 5 4 10 -3 6 -8 10 -11 10 -2 0
-4 -4 -4 -10z"/>
<path d="M1295 3330 c-228 -9 -308 -17 -332 -36 -16 -12 -14 -13 24 -14 22 0
99 6 170 14 70 8 192 18 271 21 78 4 142 11 142 16 0 5 -19 8 -42 7 -24 0
-128 -4 -233 -8z"/>
<path d="M4256 3301 c-3 -4 17 -27 44 -50 28 -23 50 -38 50 -33 0 14 -88 93
-94 83z"/>
<path d="M1893 3276 c-15 -13 -25 -27 -22 -30 3 -3 18 8 34 24 35 36 27 40
-12 6z"/>
<path d="M4365 3260 c17 -10 37 -32 46 -47 10 -18 25 -29 43 -31 21 -3 26 0
20 9 -4 7 6 3 23 -9 34 -24 51 -29 35 -9 -8 9 7 10 73 3 46 -6 82 -13 79 -18
-14 -22 20 -4 46 25 51 56 57 53 -180 82 -63 8 -137 14 -165 15 l-50 0 30 -20z
m288 -32 c10 -5 15 -13 12 -17 -6 -10 -129 14 -153 30 -22 13 115 1 141 -13z"/>
<path d="M4885 3255 c42 -19 66 -19 41 0 -11 8 -31 15 -45 14 -26 -1 -26 -1 4
-14z"/>
<path d="M1789 3249 c-10 -6 -7 -9 14 -9 29 0 35 5 14 13 -8 3 -20 1 -28 -4z"/>
<path d="M4366 3223 c-6 -14 -5 -15 5 -6 7 7 10 15 7 18 -3 3 -9 -2 -12 -12z"/>
<path d="M172 3150 c0 -30 4 -86 8 -125 7 -69 7 -68 8 35 0 58 -3 114 -8 125
-6 14 -8 4 -8 -35z"/>
<path d="M181 2886 c1 -31 4 -54 7 -51 6 6 4 97 -3 103 -3 3 -4 -20 -4 -52z"/>
<path d="M219 2793 c-13 -16 -12 -17 4 -4 16 13 21 21 13 21 -2 0 -10 -8 -17
-17z"/>
<path d="M319 2786 c8 -10 9 -16 1 -19 -6 -3 -5 -4 2 -3 19 4 20 23 2 30 -14
5 -15 4 -5 -8z"/>
<path d="M108 2783 c7 -3 16 -2 19 1 4 3 -2 6 -13 5 -11 0 -14 -3 -6 -6z"/>
<path d="M55 2770 c-3 -6 1 -7 9 -4 18 7 21 14 7 14 -6 0 -13 -4 -16 -10z"/>
<path d="M140 2770 c-20 -6 -21 -8 -5 -8 11 0 29 3 40 8 25 11 -1 11 -35 0z"/>
<path d="M5560 2641 c0 -4 12 -7 26 -5 38 4 42 14 6 14 -18 0 -32 -4 -32 -9z"/>
<path d="M662 2420 c0 -14 2 -19 5 -12 2 6 2 18 0 25 -3 6 -5 1 -5 -13z"/>
<path d="M138 2233 c7 -3 16 -2 19 1 4 3 -2 6 -13 5 -11 0 -14 -3 -6 -6z"/>
<path d="M275 2220 c4 -6 11 -8 16 -5 14 9 11 15 -7 15 -8 0 -12 -5 -9 -10z"/>
<path d="M615 2200 c-10 -11 -14 -20 -9 -20 5 0 15 9 22 20 7 11 11 20 9 20
-2 0 -12 -9 -22 -20z"/>
<path d="M72 2183 c-6 -3 -10 -8 -8 -12 3 -4 -11 -22 -30 -41 -25 -23 -32 -36
-24 -44 7 -7 22 2 50 34 22 25 40 48 40 52 0 10 -14 16 -28 11z"/>
<path d="M186 2167 c3 -10 9 -15 12 -12 3 3 0 11 -7 18 -10 9 -11 8 -5 -6z"/>
<path d="M154 2128 l-19 -23 23 19 c21 18 27 26 19 26 -2 0 -12 -10 -23 -22z"/>
<path d="M360 2139 c0 -5 5 -7 10 -4 6 3 10 8 10 11 0 2 -4 4 -10 4 -5 0 -10
-5 -10 -11z"/>
<path d="M260 2125 c-14 -8 -20 -14 -14 -15 5 0 19 7 30 15 24 18 16 19 -16 0z"/>
<path d="M100 2120 c0 -5 5 -10 11 -10 5 0 7 5 4 10 -3 6 -8 10 -11 10 -2 0
-4 -4 -4 -10z"/>
<path d="M150 2094 c-14 -7 -43 -16 -64 -19 -29 -5 -36 -9 -25 -15 8 -6 18 -5
23 0 13 13 66 13 66 0 0 -5 9 -10 20 -10 11 0 20 5 20 10 0 6 -10 10 -22 10
-22 1 -22 1 -4 15 26 20 17 25 -14 9z"/>
<path d="M294 2092 c-4 -14 -12 -21 -20 -18 -7 3 -16 1 -19 -4 -4 -6 0 -10 7
-10 10 0 9 -3 -2 -9 -8 -6 -18 -7 -22 -5 -4 3 -8 0 -8 -5 0 -6 -9 -11 -19 -11
-10 0 -21 -6 -24 -13 -3 -7 -25 -19 -48 -27 -24 -7 -38 -15 -31 -17 14 -5 112
31 149 54 19 12 23 12 31 -3 6 -11 11 -13 16 -5 4 6 2 11 -3 11 -23 0 11 35
35 36 14 1 21 -2 17 -9 -3 -5 -1 -7 4 -4 6 4 13 1 16 -7 6 -15 -26 -41 -77
-64 -16 -7 -26 -15 -23 -18 3 -3 20 1 37 9 17 9 39 14 48 11 13 -5 14 -3 4 4
-10 7 -6 12 18 22 17 7 28 15 25 18 -7 7 15 32 29 32 6 0 2 -7 -8 -15 -11 -8
-16 -15 -12 -15 5 0 3 -7 -4 -15 -16 -19 -1 -19 24 0 14 10 15 15 6 15 -12 0
-12 2 -1 13 10 9 15 9 18 1 2 -7 13 -9 24 -7 25 7 73 53 64 62 -4 3 -15 -4
-25 -17 -16 -20 -25 -22 -63 -17 -28 4 -48 2 -52 -4 -3 -6 -12 -11 -18 -11 -7
1 -1 10 12 21 15 12 31 17 45 13 21 -6 21 -6 1 10 -30 23 -52 20 -59 -9 -4
-14 -11 -23 -16 -20 -6 4 -8 11 -5 16 4 5 -7 9 -24 9 -16 0 -32 6 -34 13 -4 7
-8 3 -13 -11z"/>
<path d="M728 2073 c-7 -16 -18 -28 -25 -28 -19 0 -25 -12 -18 -34 6 -20 8
-20 36 -6 16 9 29 20 29 26 0 7 -10 5 -25 -5 -13 -9 -28 -16 -32 -16 -4 0 6 9
22 20 17 11 37 17 47 14 9 -2 19 0 23 6 4 6 3 10 -2 9 -4 -1 -17 -1 -27 0 -18
1 -18 2 -1 21 16 17 16 20 2 20 -9 0 -22 -12 -29 -27z"/>
<path d="M0 2060 c0 -5 7 -7 15 -4 19 8 19 14 0 14 -8 0 -15 -4 -15 -10z"/>
<path d="M97 2053 c-4 -3 -7 -11 -7 -17 0 -6 5 -5 12 2 6 6 9 14 7 17 -3 3 -9
2 -12 -2z"/>
<path d="M546 2045 c-11 -8 -15 -15 -9 -15 6 0 16 7 23 15 16 19 11 19 -14 0z"/>
<path d="M11 2007 c-9 -11 -4 -14 26 -15 34 -1 35 0 17 13 -24 18 -29 18 -43
2z"/>
<path d="M756 2002 c-3 -5 1 -9 9 -9 8 0 12 4 9 9 -3 4 -7 8 -9 8 -2 0 -6 -4
-9 -8z"/>
<path d="M864 1985 c-10 -8 -14 -15 -7 -15 19 0 43 11 43 21 0 13 -14 11 -36
-6z"/>
<path d="M1055 1980 c3 -5 8 -10 11 -10 2 0 4 5 4 10 0 6 -5 10 -11 10 -5 0
-7 -4 -4 -10z"/>
</g>
</svg>
